<svg xmlns="http://www.w3.org/2000/svg" xmlns:xlink="http://www.w3.org/1999/xlink" width="700" zoomAndPan="magnify" viewBox="0 0 525 149.999998" height="200" preserveAspectRatio="xMidYMid meet" version="1.0"><defs><g/></defs><g fill="#8b0000" fill-opacity="1"><g transform="translate(104.996054, 81.075332)"><g><path d="M 46.109375 -45.9375 C 46.546875 -45.269531 46.625 -44.769531 46.34375 -44.4375 C 46.070312 -44.101562 45.796875 -43.742188 45.515625 -43.359375 C 45.628906 -43.460938 45.742188 -43.515625 45.859375 -43.515625 C 45.910156 -43.515625 45.796875 -43.265625 45.515625 -42.765625 C 45.242188 -42.265625 44.925781 -41.78125 44.5625 -41.3125 C 44.195312 -40.84375 43.960938 -40.632812 43.859375 -40.6875 C 43.859375 -40.6875 43.96875 -40.910156 44.1875 -41.359375 C 42.96875 -39.523438 41.898438 -37.617188 40.984375 -35.640625 C 40.066406 -33.671875 39.21875 -31.628906 38.4375 -29.515625 C 38.769531 -30.398438 39.1875 -31.441406 39.6875 -32.640625 C 40.1875 -33.835938 40.65625 -34.90625 41.09375 -35.84375 C 41.539062 -36.789062 41.878906 -37.320312 42.109375 -37.4375 C 41.941406 -37.269531 41.660156 -36.726562 41.265625 -35.8125 C 40.878906 -34.894531 40.460938 -33.851562 40.015625 -32.6875 C 39.578125 -31.519531 39.175781 -30.476562 38.8125 -29.5625 C 38.445312 -28.644531 38.238281 -28.070312 38.1875 -27.84375 C 37.632812 -26.175781 37.132812 -24.492188 36.6875 -22.796875 C 36.238281 -21.109375 35.875 -19.398438 35.59375 -17.671875 C 35.320312 -15.953125 35.085938 -14.21875 34.890625 -12.46875 C 34.691406 -10.71875 34.484375 -8.976562 34.265625 -7.25 C 34.097656 -5.863281 33.898438 -4.429688 33.671875 -2.953125 C 33.453125 -1.484375 33.398438 -0.109375 33.515625 1.171875 C 33.515625 1.003906 33.523438 0.835938 33.546875 0.671875 C 33.578125 0.503906 33.625 0.335938 33.6875 0.171875 C 33.738281 0.171875 33.816406 0.472656 33.921875 1.078125 C 34.035156 1.691406 34.175781 2.332031 34.34375 3 C 34.507812 3.664062 34.675781 4.054688 34.84375 4.171875 C 34.957031 4.222656 35.082031 4.21875 35.21875 4.15625 C 35.363281 4.101562 35.488281 4.078125 35.59375 4.078125 C 36.375 3.972656 37.140625 3.472656 37.890625 2.578125 C 38.640625 1.691406 39.210938 1 39.609375 0.5 C 39.878906 0.164062 40.25 -0.375 40.71875 -1.125 C 41.195312 -1.875 41.628906 -2.332031 42.015625 -2.5 C 42.796875 -2.832031 43.195312 -2.625 43.21875 -1.875 C 43.25 -1.125 43.097656 -0.15625 42.765625 1.03125 C 42.429688 2.226562 42.039062 3.34375 41.59375 4.375 C 41.15625 5.40625 40.828125 6.0625 40.609375 6.34375 C 39.941406 7.226562 39.242188 7.972656 38.515625 8.578125 C 37.796875 9.191406 36.820312 9.5 35.59375 9.5 C 33.59375 9.5 31.789062 8.832031 30.1875 7.5 C 28.851562 6.28125 27.878906 4.804688 27.265625 3.078125 C 26.648438 1.359375 26.289062 -0.359375 26.1875 -2.078125 C 26.1875 -2.859375 26.238281 -3.566406 26.34375 -4.203125 C 26.457031 -4.847656 26.570312 -5.53125 26.6875 -6.25 C 26.6875 -6.363281 26.671875 -6.65625 26.640625 -7.125 C 26.609375 -7.601562 26.609375 -8.0625 26.640625 -8.5 C 26.671875 -8.945312 26.710938 -9.171875 26.765625 -9.171875 C 26.765625 -9.117188 26.773438 -9.078125 26.796875 -9.046875 C 26.828125 -9.015625 26.84375 -8.972656 26.84375 -8.921875 C 26.84375 -9.203125 26.84375 -9.34375 26.84375 -9.34375 C 26.789062 -9.34375 26.734375 -9.59375 26.671875 -10.09375 C 26.617188 -10.59375 26.59375 -10.867188 26.59375 -10.921875 C 26.65625 -11.472656 26.738281 -12 26.84375 -12.5 C 26.957031 -13 27.039062 -13.53125 27.09375 -14.09375 C 27.257812 -14.863281 27.398438 -15.640625 27.515625 -16.421875 C 27.628906 -17.203125 27.710938 -17.984375 27.765625 -18.765625 C 27.765625 -18.929688 27.847656 -19.398438 28.015625 -20.171875 C 28.179688 -20.953125 28.390625 -21.828125 28.640625 -22.796875 C 28.890625 -23.773438 29.140625 -24.609375 29.390625 -25.296875 C 29.640625 -25.992188 29.875 -26.34375 30.09375 -26.34375 C 30.207031 -26.34375 30.222656 -26.242188 30.140625 -26.046875 C 30.054688 -25.859375 30.039062 -25.734375 30.09375 -25.671875 L 30.765625 -28.015625 C 28.546875 -24.453125 26.28125 -20.847656 23.96875 -17.203125 C 21.664062 -13.566406 19.289062 -10.03125 16.84375 -6.59375 C 16.34375 -5.925781 15.703125 -5.046875 14.921875 -3.953125 C 14.140625 -2.867188 13.273438 -1.910156 12.328125 -1.078125 C 11.390625 -0.242188 10.421875 0.195312 9.421875 0.25 C 8.035156 0.300781 6.753906 -0.222656 5.578125 -1.328125 C 4.410156 -2.441406 3.492188 -3.523438 2.828125 -4.578125 C 2.828125 -4.578125 2.660156 -4.757812 2.328125 -5.125 C 1.992188 -5.488281 1.800781 -5.78125 1.75 -6 C 1.800781 -5.894531 1.953125 -5.703125 2.203125 -5.421875 C 2.453125 -5.140625 2.578125 -5 2.578125 -5 L 1.578125 -6.75 C 1.691406 -6.363281 1.648438 -6.363281 1.453125 -6.75 C 1.265625 -7.144531 1.140625 -7.34375 1.078125 -7.34375 C 0.910156 -7.613281 0.785156 -7.914062 0.703125 -8.25 C 0.617188 -8.582031 0.550781 -8.890625 0.5 -9.171875 C 0.28125 -9.890625 0.140625 -10.609375 0.078125 -11.328125 C 0.0234375 -12.054688 0 -12.78125 0 -13.5 C 0.0507812 -15.007812 0.242188 -16.484375 0.578125 -17.921875 C 0.910156 -19.367188 1.21875 -20.816406 1.5 -22.265625 C 1.78125 -23.765625 2.15625 -25.222656 2.625 -26.640625 C 3.09375 -28.054688 3.609375 -29.457031 4.171875 -30.84375 C 4.222656 -30.957031 4.382812 -31.332031 4.65625 -31.96875 C 4.9375 -32.613281 5.242188 -33.320312 5.578125 -34.09375 C 5.921875 -34.875 6.242188 -35.539062 6.546875 -36.09375 C 6.847656 -36.65625 7.082031 -36.9375 7.25 -36.9375 C 7.25 -36.9375 7.179688 -36.753906 7.046875 -36.390625 C 6.910156 -36.023438 6.867188 -35.816406 6.921875 -35.765625 C 7.203125 -36.429688 7.492188 -37.097656 7.796875 -37.765625 C 8.097656 -38.429688 8.414062 -39.097656 8.75 -39.765625 C 8.644531 -39.597656 8.519531 -39.429688 8.375 -39.265625 C 8.238281 -39.097656 8.171875 -39.015625 8.171875 -39.015625 C 8.222656 -39.679688 8.523438 -40.414062 9.078125 -41.21875 C 9.640625 -42.03125 10.0625 -42.710938 10.34375 -43.265625 L 12.84375 -48.1875 C 13.78125 -49.851562 14.816406 -51.460938 15.953125 -53.015625 C 17.097656 -54.578125 18.285156 -56.109375 19.515625 -57.609375 C 20.566406 -58.890625 21.742188 -60.15625 23.046875 -61.40625 C 24.359375 -62.65625 25.820312 -63.554688 27.4375 -64.109375 C 28.269531 -64.390625 29.128906 -64.488281 30.015625 -64.40625 C 30.898438 -64.320312 31.757812 -64.195312 32.59375 -64.03125 C 34.15625 -63.695312 35.6875 -63.054688 37.1875 -62.109375 C 38.6875 -61.171875 40.019531 -60.203125 41.1875 -59.203125 C 41.632812 -58.804688 42.203125 -58.285156 42.890625 -57.640625 C 43.585938 -57.003906 43.910156 -56.328125 43.859375 -55.609375 C 43.859375 -55.054688 43.578125 -54.5 43.015625 -53.9375 C 42.460938 -53.382812 41.960938 -52.96875 41.515625 -52.6875 C 40.460938 -52.019531 39.726562 -51.835938 39.3125 -52.140625 C 38.894531 -52.453125 38.546875 -53.082031 38.265625 -54.03125 C 38.265625 -53.96875 38.304688 -53.796875 38.390625 -53.515625 C 38.472656 -53.242188 38.460938 -53.082031 38.359375 -53.03125 C 38.296875 -53.03125 38.195312 -53.238281 38.0625 -53.65625 C 37.925781 -54.070312 37.785156 -54.53125 37.640625 -55.03125 C 37.503906 -55.53125 37.410156 -55.832031 37.359375 -55.9375 C 37.296875 -56.21875 37.207031 -56.492188 37.09375 -56.765625 C 36.988281 -57.046875 36.878906 -57.300781 36.765625 -57.53125 C 36.878906 -57.300781 37.003906 -57.128906 37.140625 -57.015625 C 37.285156 -56.910156 37.382812 -56.800781 37.4375 -56.6875 C 37.101562 -57.632812 36.65625 -58.304688 36.09375 -58.703125 C 35.375 -58.972656 34.320312 -58.859375 32.9375 -58.359375 C 32.039062 -58.023438 31.175781 -57.578125 30.34375 -57.015625 C 29.507812 -56.460938 28.734375 -55.851562 28.015625 -55.1875 C 26.015625 -53.414062 24.25 -51.390625 22.71875 -49.109375 C 21.1875 -46.828125 19.785156 -44.492188 18.515625 -42.109375 C 19.285156 -43.546875 20.128906 -44.957031 21.046875 -46.34375 C 21.960938 -47.738281 22.921875 -49.101562 23.921875 -50.4375 C 24.421875 -51.101562 24.945312 -51.753906 25.5 -52.390625 C 26.0625 -53.035156 26.648438 -53.632812 27.265625 -54.1875 C 27.546875 -54.46875 27.960938 -54.785156 28.515625 -55.140625 C 29.066406 -55.503906 29.507812 -55.851562 29.84375 -56.1875 C 29.40625 -55.632812 28.835938 -55.109375 28.140625 -54.609375 C 27.441406 -54.109375 26.875 -53.632812 26.4375 -53.1875 C 25.875 -52.632812 25.351562 -52.035156 24.875 -51.390625 C 24.40625 -50.753906 23.953125 -50.132812 23.515625 -49.53125 C 22.515625 -48.132812 21.566406 -46.710938 20.671875 -45.265625 C 19.785156 -43.828125 18.953125 -42.359375 18.171875 -40.859375 C 16.503906 -37.679688 15.015625 -34.410156 13.703125 -31.046875 C 12.398438 -27.691406 11.304688 -24.289062 10.421875 -20.84375 C 10.035156 -19.289062 9.660156 -17.691406 9.296875 -16.046875 C 8.929688 -14.410156 8.640625 -12.785156 8.421875 -11.171875 C 8.421875 -10.953125 8.363281 -10.535156 8.25 -9.921875 C 8.144531 -9.304688 8.101562 -8.722656 8.125 -8.171875 C 8.15625 -7.617188 8.3125 -7.257812 8.59375 -7.09375 C 9.03125 -6.863281 9.640625 -7.054688 10.421875 -7.671875 C 11.203125 -8.285156 11.953125 -8.976562 12.671875 -9.75 C 13.390625 -10.53125 13.832031 -11.03125 14 -11.25 C 14.945312 -12.25 15.894531 -13.25 16.84375 -14.25 C 17.789062 -15.257812 18.679688 -16.265625 19.515625 -17.265625 C 19.347656 -17.097656 19.191406 -16.929688 19.046875 -16.765625 C 18.910156 -16.597656 18.785156 -16.539062 18.671875 -16.59375 C 18.671875 -16.59375 18.820312 -16.828125 19.125 -17.296875 C 19.4375 -17.773438 19.8125 -18.347656 20.25 -19.015625 C 20.695312 -19.679688 21.113281 -20.273438 21.5 -20.796875 C 21.894531 -21.328125 22.117188 -21.648438 22.171875 -21.765625 L 26.1875 -27.4375 C 27.625 -29.488281 29.023438 -31.554688 30.390625 -33.640625 C 31.753906 -35.722656 33.128906 -37.796875 34.515625 -39.859375 C 34.847656 -40.359375 35.148438 -40.867188 35.421875 -41.390625 C 35.703125 -41.921875 35.984375 -42.460938 36.265625 -43.015625 C 36.492188 -43.460938 36.757812 -43.835938 37.0625 -44.140625 C 37.363281 -44.453125 37.628906 -44.742188 37.859375 -45.015625 C 38.128906 -45.296875 38.332031 -45.671875 38.46875 -46.140625 C 38.613281 -46.617188 38.828125 -47.023438 39.109375 -47.359375 C 39.828125 -48.242188 40.628906 -48.6875 41.515625 -48.6875 C 42.410156 -48.6875 43.273438 -48.421875 44.109375 -47.890625 C 44.941406 -47.367188 45.609375 -46.71875 46.109375 -45.9375 Z M 8.84375 -18.515625 C 8.675781 -17.179688 8.507812 -15.816406 8.34375 -14.421875 C 8.175781 -13.035156 8.035156 -11.644531 7.921875 -10.25 L 7.921875 -9.921875 L 8.09375 -11.421875 C 8.195312 -12.804688 8.375 -14.179688 8.625 -15.546875 C 8.875 -16.910156 9.164062 -18.285156 9.5 -19.671875 C 10.164062 -22.398438 10.914062 -25.140625 11.75 -27.890625 C 12.582031 -30.640625 13.5 -33.320312 14.5 -35.9375 C 15.445312 -38.382812 16.476562 -40.800781 17.59375 -43.1875 C 18.707031 -45.570312 19.957031 -47.878906 21.34375 -50.109375 C 22.007812 -51.273438 22.800781 -52.46875 23.71875 -53.6875 C 24.632812 -54.914062 25.648438 -56 26.765625 -56.9375 C 25.484375 -55.882812 24.34375 -54.675781 23.34375 -53.3125 C 22.34375 -51.957031 21.484375 -50.640625 20.765625 -49.359375 C 19.484375 -47.128906 18.242188 -44.90625 17.046875 -42.6875 C 15.847656 -40.46875 14.75 -38.160156 13.75 -35.765625 C 12.582031 -33.046875 11.582031 -30.222656 10.75 -27.296875 C 9.914062 -24.378906 9.28125 -21.453125 8.84375 -18.515625 Z M 27.515625 -5.75 C 27.460938 -4.914062 27.460938 -4.09375 27.515625 -3.28125 C 27.566406 -2.476562 27.625 -1.691406 27.6875 -0.921875 C 27.625 -1.359375 27.609375 -1.8125 27.640625 -2.28125 C 27.671875 -2.757812 27.710938 -3.222656 27.765625 -3.671875 C 27.878906 -4.441406 28.003906 -5.21875 28.140625 -6 C 28.273438 -6.78125 28.375 -7.5625 28.4375 -8.34375 C 28.488281 -9.007812 28.515625 -9.6875 28.515625 -10.375 C 28.515625 -11.070312 28.539062 -11.726562 28.59375 -12.34375 C 28.488281 -12.0625 28.394531 -11.78125 28.3125 -11.5 C 28.226562 -11.226562 28.128906 -10.953125 28.015625 -10.671875 C 27.796875 -9.835938 27.65625 -9.03125 27.59375 -8.25 C 27.539062 -7.476562 27.515625 -6.644531 27.515625 -5.75 Z M 15.09375 -35.015625 L 15.09375 -35.1875 L 14.921875 -34.765625 Z M 28.1875 -58.03125 C 28.019531 -57.976562 27.851562 -57.867188 27.6875 -57.703125 C 27.519531 -57.535156 27.351562 -57.394531 27.1875 -57.28125 Z M 36.1875 -58.53125 C 36.1875 -58.414062 36.296875 -58.191406 36.515625 -57.859375 Z M 36.765625 -57.609375 C 36.765625 -57.609375 36.738281 -57.632812 36.6875 -57.6875 C 36.632812 -57.75 36.578125 -57.804688 36.515625 -57.859375 Z M 38.1875 -28.84375 L 38.4375 -29.515625 Z M 38.1875 -28.84375 "/></g></g></g><g fill="#8b0000" fill-opacity="1"><g transform="translate(148.517822, 81.075332)"><g/></g></g><g fill="#8b0000" fill-opacity="1"><g transform="translate(171.86284, 81.075332)"><g><path d="M 61.953125 14.09375 C 62.222656 13.976562 62.691406 13.765625 63.359375 13.453125 C 64.023438 13.148438 64.664062 12.914062 65.28125 12.75 C 65.894531 12.582031 66.226562 12.722656 66.28125 13.171875 C 66.394531 13.617188 66.242188 14.132812 65.828125 14.71875 C 65.410156 15.300781 64.9375 15.84375 64.40625 16.34375 C 63.875 16.84375 63.472656 17.234375 63.203125 17.515625 C 61.753906 18.679688 60.140625 19.484375 58.359375 19.921875 C 56.523438 20.421875 54.898438 20.363281 53.484375 19.75 C 52.066406 19.144531 50.773438 18.09375 49.609375 16.59375 C 47.992188 14.476562 46.945312 12.28125 46.46875 10 C 46 7.726562 45.90625 5.394531 46.1875 3 C 46.46875 0.613281 46.941406 -1.742188 47.609375 -4.078125 C 47.609375 -4.078125 47.632812 -4.367188 47.6875 -4.953125 C 47.75 -5.546875 47.863281 -5.894531 48.03125 -6 C 48.03125 -5.945312 48.015625 -5.78125 47.984375 -5.5 C 47.953125 -5.21875 47.910156 -4.992188 47.859375 -4.828125 L 48.28125 -6.34375 C 48.28125 -6.28125 48.222656 -6.25 48.109375 -6.25 C 47.992188 -6.75 48.101562 -7.414062 48.4375 -8.25 C 48.769531 -9.082031 49.019531 -9.722656 49.1875 -10.171875 L 51.03125 -14.34375 C 51.582031 -15.5625 52.09375 -16.769531 52.5625 -17.96875 C 53.039062 -19.164062 53.5 -20.375 53.9375 -21.59375 C 54.382812 -22.976562 54.953125 -24.320312 55.640625 -25.625 C 56.335938 -26.9375 56.992188 -28.234375 57.609375 -29.515625 C 57.722656 -29.679688 57.945312 -30.125 58.28125 -30.84375 C 58.613281 -31.570312 58.945312 -32.269531 59.28125 -32.9375 C 59.613281 -33.601562 59.835938 -33.90625 59.953125 -33.84375 C 59.953125 -33.84375 59.894531 -33.675781 59.78125 -33.34375 C 59.664062 -33.007812 59.640625 -32.816406 59.703125 -32.765625 C 59.972656 -33.484375 60.25 -34.203125 60.53125 -34.921875 C 60.8125 -35.648438 61.0625 -36.378906 61.28125 -37.109375 L 60.703125 -35.9375 C 60.703125 -36.320312 60.828125 -36.820312 61.078125 -37.4375 C 61.328125 -38.050781 61.492188 -38.632812 61.578125 -39.1875 C 61.660156 -39.738281 61.394531 -40.070312 60.78125 -40.1875 C 60.0625 -40.351562 59.253906 -40.0625 58.359375 -39.3125 C 57.472656 -38.5625 56.804688 -37.960938 56.359375 -37.515625 C 54.472656 -35.796875 52.765625 -33.960938 51.234375 -32.015625 C 49.703125 -30.066406 48.210938 -28.035156 46.765625 -25.921875 C 46.046875 -24.921875 45.351562 -23.9375 44.6875 -22.96875 C 44.019531 -22 43.242188 -21.066406 42.359375 -20.171875 C 41.796875 -19.671875 41.320312 -19.019531 40.9375 -18.21875 C 40.550781 -17.414062 40.132812 -16.679688 39.6875 -16.015625 C 38.96875 -14.785156 38.257812 -13.570312 37.5625 -12.375 C 36.863281 -11.1875 36.15625 -10.007812 35.4375 -8.84375 C 34.9375 -7.945312 34.378906 -7.066406 33.765625 -6.203125 C 33.148438 -5.347656 32.675781 -4.445312 32.34375 -3.5 C 32.070312 -2.71875 31.769531 -2.019531 31.4375 -1.40625 C 31.101562 -0.800781 30.671875 -0.46875 30.140625 -0.40625 C 29.609375 -0.351562 28.898438 -0.71875 28.015625 -1.5 C 26.796875 -2.71875 26.097656 -4.09375 25.921875 -5.625 C 25.753906 -7.15625 25.84375 -8.695312 26.1875 -10.25 C 27.125 -14.976562 28.703125 -19.609375 30.921875 -24.140625 C 33.148438 -28.671875 35.460938 -32.960938 37.859375 -37.015625 C 38.910156 -38.796875 39.878906 -40.644531 40.765625 -42.5625 C 41.660156 -44.476562 42.46875 -46.382812 43.1875 -48.28125 C 43.300781 -48.613281 43.453125 -49.03125 43.640625 -49.53125 C 43.835938 -50.03125 43.769531 -50.332031 43.4375 -50.4375 C 43.050781 -50.601562 42.453125 -50.421875 41.640625 -49.890625 C 40.835938 -49.367188 40.296875 -49 40.015625 -48.78125 C 38.128906 -47.382812 36.40625 -45.769531 34.84375 -43.9375 C 33.289062 -42.101562 31.789062 -40.242188 30.34375 -38.359375 C 28.90625 -36.460938 27.503906 -34.515625 26.140625 -32.515625 C 24.773438 -30.515625 23.425781 -28.488281 22.09375 -26.4375 C 20.707031 -24.320312 19.332031 -22.179688 17.96875 -20.015625 C 16.601562 -17.847656 15.253906 -15.675781 13.921875 -13.5 C 13.304688 -12.445312 12.679688 -11.40625 12.046875 -10.375 C 11.410156 -9.351562 10.867188 -8.285156 10.421875 -7.171875 C 9.972656 -6.117188 9.554688 -5.0625 9.171875 -4 C 8.785156 -2.945312 8.367188 -1.863281 7.921875 -0.75 C 7.703125 -0.0820312 7.46875 0.691406 7.21875 1.578125 C 6.96875 2.472656 6.617188 3.222656 6.171875 3.828125 C 5.617188 4.554688 4.878906 4.921875 3.953125 4.921875 C 3.035156 4.921875 2.21875 4.640625 1.5 4.078125 C 0.882812 3.578125 0.46875 2.953125 0.25 2.203125 C 0.03125 1.453125 -0.0507812 0.691406 0 -0.078125 C 0.113281 -2.359375 0.585938 -4.691406 1.421875 -7.078125 C 2.253906 -9.472656 3.113281 -11.695312 4 -13.75 C 4.894531 -15.863281 5.785156 -17.9375 6.671875 -19.96875 C 7.554688 -22 8.390625 -24.070312 9.171875 -26.1875 C 10.785156 -30.519531 12.59375 -34.8125 14.59375 -39.0625 C 16.59375 -43.3125 18.203125 -47.6875 19.421875 -52.1875 L 19.421875 -51.359375 L 19.921875 -54.4375 C 20.085938 -55.4375 20.070312 -56.328125 19.875 -57.109375 C 19.6875 -57.890625 18.953125 -58.140625 17.671875 -57.859375 C 16.785156 -57.640625 15.953125 -57.222656 15.171875 -56.609375 C 14.390625 -55.992188 13.695312 -55.328125 13.09375 -54.609375 C 11.59375 -53.054688 10.285156 -51.289062 9.171875 -49.3125 C 8.054688 -47.34375 7.113281 -45.328125 6.34375 -43.265625 C 6.175781 -42.878906 6.035156 -42.40625 5.921875 -41.84375 C 5.804688 -41.289062 5.722656 -40.878906 5.671875 -40.609375 C 5.617188 -40.273438 5.601562 -39.953125 5.625 -39.640625 C 5.65625 -39.335938 5.53125 -39.046875 5.25 -38.765625 C 4.75 -38.378906 4.25 -38.296875 3.75 -38.515625 C 3.25 -38.742188 2.832031 -39.078125 2.5 -39.515625 C 1.832031 -40.515625 1.5 -41.722656 1.5 -43.140625 C 1.5 -44.554688 1.640625 -45.820312 1.921875 -46.9375 C 2.191406 -47.9375 2.632812 -48.835938 3.25 -49.640625 C 3.863281 -50.453125 4.363281 -51.300781 4.75 -52.1875 C 4.863281 -52.46875 4.945312 -52.773438 5 -53.109375 C 5.050781 -53.441406 5.191406 -53.773438 5.421875 -54.109375 L 6.25 -55.28125 C 7.144531 -56.28125 8.09375 -57.222656 9.09375 -58.109375 C 11.03125 -59.722656 13.164062 -60.890625 15.5 -61.609375 C 16.84375 -62.054688 18.191406 -62.238281 19.546875 -62.15625 C 20.910156 -62.070312 22.117188 -61.472656 23.171875 -60.359375 C 23.835938 -59.640625 24.363281 -58.722656 24.75 -57.609375 C 25.144531 -56.492188 25.453125 -55.46875 25.671875 -54.53125 C 25.953125 -53.25 25.953125 -51.859375 25.671875 -50.359375 C 25.398438 -48.859375 25.066406 -47.492188 24.671875 -46.265625 C 24.285156 -45.046875 23.910156 -43.820312 23.546875 -42.59375 C 23.191406 -41.375 22.789062 -40.15625 22.34375 -38.9375 C 21.957031 -37.769531 21.554688 -36.613281 21.140625 -35.46875 C 20.722656 -34.332031 20.289062 -33.179688 19.84375 -32.015625 C 19.507812 -31.128906 19.226562 -30.238281 19 -29.34375 C 18.78125 -28.457031 18.535156 -27.539062 18.265625 -26.59375 C 20.429688 -29.988281 22.707031 -33.378906 25.09375 -36.765625 C 27.488281 -40.160156 30.070312 -43.328125 32.84375 -46.265625 C 33.40625 -46.828125 34.085938 -47.609375 34.890625 -48.609375 C 35.691406 -49.609375 36.59375 -50.609375 37.59375 -51.609375 C 38.601562 -52.609375 39.632812 -53.425781 40.6875 -54.0625 C 41.738281 -54.707031 42.789062 -55.015625 43.84375 -54.984375 C 44.90625 -54.953125 45.878906 -54.382812 46.765625 -53.28125 C 47.828125 -52 48.507812 -50.46875 48.8125 -48.6875 C 49.125 -46.90625 48.972656 -45.238281 48.359375 -43.6875 C 47.804688 -42.300781 47.066406 -40.953125 46.140625 -39.640625 C 45.222656 -38.335938 44.460938 -36.988281 43.859375 -35.59375 C 42.242188 -31.875 40.5625 -28.179688 38.8125 -24.515625 C 37.0625 -20.847656 35.601562 -17.039062 34.4375 -13.09375 C 35.9375 -15.707031 37.476562 -18.289062 39.0625 -20.84375 C 40.644531 -23.394531 42.296875 -25.894531 44.015625 -28.34375 C 43.628906 -27.789062 43.195312 -27.207031 42.71875 -26.59375 C 42.25 -25.976562 41.820312 -25.367188 41.4375 -24.765625 C 42.21875 -25.929688 42.898438 -26.957031 43.484375 -27.84375 C 44.066406 -28.738281 44.441406 -29.296875 44.609375 -29.515625 C 46.046875 -31.515625 47.554688 -33.472656 49.140625 -35.390625 C 50.734375 -37.304688 52.472656 -39.097656 54.359375 -40.765625 C 55.359375 -41.710938 56.507812 -42.613281 57.8125 -43.46875 C 59.125 -44.332031 60.503906 -44.765625 61.953125 -44.765625 C 63.671875 -44.828125 65.054688 -44.21875 66.109375 -42.9375 C 67.171875 -41.65625 67.84375 -40.238281 68.125 -38.6875 C 68.5625 -36.289062 68.414062 -33.941406 67.6875 -31.640625 C 66.96875 -29.335938 66.023438 -27.097656 64.859375 -24.921875 C 63.691406 -22.753906 62.609375 -20.644531 61.609375 -18.59375 C 61.835938 -18.976562 62.035156 -19.171875 62.203125 -19.171875 C 62.203125 -19.171875 62.101562 -18.894531 61.90625 -18.34375 C 61.707031 -17.789062 61.457031 -17.132812 61.15625 -16.375 C 60.851562 -15.625 60.578125 -14.941406 60.328125 -14.328125 C 60.078125 -13.722656 59.921875 -13.363281 59.859375 -13.25 C 59.359375 -12.082031 58.875 -10.914062 58.40625 -9.75 C 57.9375 -8.582031 57.445312 -7.445312 56.9375 -6.34375 C 56.050781 -4.164062 55.203125 -1.984375 54.390625 0.203125 C 53.585938 2.398438 52.9375 4.640625 52.4375 6.921875 C 52.269531 7.640625 52.101562 8.472656 51.9375 9.421875 C 51.769531 10.367188 51.785156 11.269531 51.984375 12.125 C 52.179688 12.988281 52.664062 13.644531 53.4375 14.09375 C 54.601562 14.695312 56.019531 14.941406 57.6875 14.828125 C 59.363281 14.722656 60.785156 14.476562 61.953125 14.09375 Z M 50.859375 -10.921875 C 50.191406 -9.535156 49.660156 -8.160156 49.265625 -6.796875 C 48.878906 -5.429688 48.46875 -4.054688 48.03125 -2.671875 C 48.46875 -3.941406 48.9375 -5.1875 49.4375 -6.40625 C 49.9375 -7.632812 50.46875 -8.863281 51.03125 -10.09375 C 51.695312 -11.53125 52.390625 -13.039062 53.109375 -14.625 C 53.828125 -16.21875 54.328125 -17.765625 54.609375 -19.265625 C 54.828125 -19.765625 54.828125 -20.039062 54.609375 -20.09375 C 54.222656 -19.59375 53.914062 -18.867188 53.6875 -17.921875 C 53.46875 -16.984375 53.21875 -16.207031 52.9375 -15.59375 C 52.601562 -14.8125 52.269531 -14.03125 51.9375 -13.25 C 51.601562 -12.476562 51.242188 -11.703125 50.859375 -10.921875 Z M 13.921875 -35.84375 C 13.203125 -34.125 12.492188 -32.414062 11.796875 -30.71875 C 11.097656 -29.03125 10.414062 -27.296875 9.75 -25.515625 C 10.53125 -27.398438 11.304688 -29.257812 12.078125 -31.09375 C 12.859375 -32.925781 13.695312 -34.734375 14.59375 -36.515625 C 15.539062 -38.410156 16.332031 -40.328125 16.96875 -42.265625 C 17.601562 -44.210938 18.171875 -46.160156 18.671875 -48.109375 C 18.453125 -47.441406 18.21875 -46.785156 17.96875 -46.140625 C 17.71875 -45.503906 17.453125 -44.878906 17.171875 -44.265625 C 16.617188 -42.878906 16.09375 -41.476562 15.59375 -40.0625 C 15.09375 -38.644531 14.535156 -37.238281 13.921875 -35.84375 Z M 40.609375 -23.515625 C 40.210938 -22.847656 39.664062 -21.941406 38.96875 -20.796875 C 38.28125 -19.660156 37.65625 -18.644531 37.09375 -17.75 C 36.539062 -16.863281 36.207031 -16.421875 36.09375 -16.421875 C 36.09375 -16.421875 36.578125 -17.171875 37.546875 -18.671875 C 38.523438 -20.171875 39.546875 -21.785156 40.609375 -23.515625 Z M 53.28125 -39.4375 C 52.71875 -38.9375 52.1875 -38.421875 51.6875 -37.890625 C 51.1875 -37.367188 50.6875 -36.800781 50.1875 -36.1875 Z M 47.359375 0 C 47.523438 -0.332031 47.523438 -0.523438 47.359375 -0.578125 C 47.140625 -0.242188 47.140625 -0.0507812 47.359375 0 Z M 49.359375 -35.1875 L 49.609375 -35.4375 L 49.6875 -35.59375 L 49.78125 -35.6875 C 49.78125 -35.625 49.765625 -35.59375 49.734375 -35.59375 C 49.703125 -35.59375 49.6875 -35.59375 49.6875 -35.59375 L 50.03125 -35.9375 L 50.1875 -36.1875 L 50.03125 -36.015625 C 49.96875 -35.960938 49.894531 -35.878906 49.8125 -35.765625 C 49.726562 -35.648438 49.632812 -35.507812 49.53125 -35.34375 L 49.53125 -35.4375 Z M 40.765625 -23.765625 L 41.109375 -24.171875 L 41.109375 -24.265625 Z M 40.609375 -23.515625 C 40.710938 -23.617188 40.765625 -23.703125 40.765625 -23.765625 Z M 49.9375 -35.9375 C 50 -35.9375 50.03125 -35.945312 50.03125 -35.96875 C 50.03125 -36 50.03125 -36.015625 50.03125 -36.015625 Z M 49.9375 -35.9375 "/></g></g></g><g fill="#8b0000" fill-opacity="1"><g transform="translate(241.314243, 81.075332)"><g><path d="M 31.9375 -20.59375 C 32.101562 -20.257812 32.144531 -19.976562 32.0625 -19.75 C 31.976562 -19.53125 31.820312 -19.285156 31.59375 -19.015625 L 29.015625 -15.59375 L 24.515625 -9.75 C 23.953125 -9.03125 23.335938 -8.304688 22.671875 -7.578125 C 22.003906 -6.859375 21.367188 -6.113281 20.765625 -5.34375 C 20.148438 -4.5 19.550781 -3.644531 18.96875 -2.78125 C 18.382812 -1.925781 17.734375 -1.109375 17.015625 -0.328125 C 16.285156 0.441406 15.472656 1.21875 14.578125 2 C 13.691406 2.78125 12.75 3.445312 11.75 4 C 10.414062 4.71875 9 4.859375 7.5 4.421875 C 6.445312 4.140625 5.445312 3.675781 4.5 3.03125 C 3.550781 2.394531 2.71875 1.660156 2 0.828125 C 1.78125 0.554688 1.585938 0.304688 1.421875 0.078125 C 1.253906 -0.140625 1.140625 -0.414062 1.078125 -0.75 C 1.023438 -1.03125 0.984375 -1.304688 0.953125 -1.578125 C 0.929688 -1.859375 0.921875 -2.140625 0.921875 -2.421875 C 0.859375 -2.921875 0.894531 -3.378906 1.03125 -3.796875 C 1.175781 -4.210938 1.273438 -4.671875 1.328125 -5.171875 C 1.441406 -5.722656 1.59375 -6.25 1.78125 -6.75 C 1.976562 -7.25 2.109375 -7.78125 2.171875 -8.34375 C 2.273438 -8.945312 2.394531 -9.515625 2.53125 -10.046875 C 2.675781 -10.578125 2.773438 -11.117188 2.828125 -11.671875 C 2.890625 -12.171875 2.90625 -12.679688 2.875 -13.203125 C 2.84375 -13.734375 2.882812 -14.25 3 -14.75 C 3.113281 -15.082031 3.265625 -15.414062 3.453125 -15.75 C 3.648438 -16.09375 3.804688 -16.457031 3.921875 -16.84375 C 3.804688 -16.625 3.664062 -16.390625 3.5 -16.140625 C 3.332031 -15.890625 3.222656 -15.648438 3.171875 -15.421875 C 3.054688 -15.085938 2.941406 -14.753906 2.828125 -14.421875 C 2.722656 -14.085938 2.613281 -13.78125 2.5 -13.5 C 2.382812 -13.164062 2.285156 -12.847656 2.203125 -12.546875 C 2.117188 -12.242188 2.023438 -11.925781 1.921875 -11.59375 C 1.753906 -11.195312 1.597656 -10.832031 1.453125 -10.5 C 1.316406 -10.164062 1.222656 -9.78125 1.171875 -9.34375 C 1.109375 -8.945312 1.09375 -8.566406 1.125 -8.203125 C 1.15625 -7.847656 1.140625 -7.476562 1.078125 -7.09375 C 1.023438 -6.695312 0.957031 -6.347656 0.875 -6.046875 C 0.789062 -5.742188 0.75 -5.394531 0.75 -5 C 0.75 -4.882812 0.773438 -4.726562 0.828125 -4.53125 C 0.890625 -4.34375 0.921875 -4.191406 0.921875 -4.078125 C 0.921875 -3.910156 0.890625 -3.726562 0.828125 -3.53125 C 0.773438 -3.34375 0.75 -3.140625 0.75 -2.921875 C 0.75 -2.523438 0.773438 -2.144531 0.828125 -1.78125 C 0.890625 -1.425781 0.945312 -1.023438 1 -0.578125 C 0.332031 -1.742188 0 -2.925781 0 -4.125 C 0 -5.320312 0.109375 -6.53125 0.328125 -7.75 C 0.554688 -9.03125 0.765625 -10.265625 0.953125 -11.453125 C 1.148438 -12.648438 1.390625 -13.863281 1.671875 -15.09375 C 2.222656 -17.539062 3.054688 -19.941406 4.171875 -22.296875 C 5.285156 -24.660156 6.617188 -26.816406 8.171875 -28.765625 C 9.453125 -30.484375 10.96875 -31.882812 12.71875 -32.96875 C 14.46875 -34.050781 16.453125 -34.375 18.671875 -33.9375 C 19.503906 -33.769531 20.335938 -33.488281 21.171875 -33.09375 C 22.003906 -32.707031 22.703125 -32.15625 23.265625 -31.4375 C 23.867188 -30.65625 24.171875 -29.789062 24.171875 -28.84375 C 24.171875 -27.90625 24.035156 -26.960938 23.765625 -26.015625 C 23.203125 -24.398438 22.3125 -22.9375 21.09375 -21.625 C 19.875 -20.320312 18.625 -19.117188 17.34375 -18.015625 C 16.789062 -17.566406 16.21875 -17.117188 15.625 -16.671875 C 15.039062 -16.234375 14.445312 -15.816406 13.84375 -15.421875 C 13.445312 -15.203125 13.015625 -14.992188 12.546875 -14.796875 C 12.078125 -14.597656 11.617188 -14.414062 11.171875 -14.25 L 9.75 -13.75 C 9.476562 -13.695312 9.285156 -13.65625 9.171875 -13.625 C 9.054688 -13.601562 8.945312 -13.453125 8.84375 -13.171875 C 8.613281 -12.785156 8.523438 -12.382812 8.578125 -11.96875 C 8.640625 -11.550781 8.613281 -11.117188 8.5 -10.671875 C 8.445312 -10.117188 8.347656 -9.59375 8.203125 -9.09375 C 8.066406 -8.59375 7.945312 -8.0625 7.84375 -7.5 C 7.613281 -6.5 7.398438 -5.398438 7.203125 -4.203125 C 7.015625 -3.015625 7.03125 -1.890625 7.25 -0.828125 C 7.476562 0.222656 8.019531 0.707031 8.875 0.625 C 9.738281 0.539062 10.679688 0.15625 11.703125 -0.53125 C 12.734375 -1.226562 13.691406 -1.96875 14.578125 -2.75 C 15.472656 -3.53125 16.085938 -4.054688 16.421875 -4.328125 C 16.867188 -4.722656 17.269531 -5.113281 17.625 -5.5 C 17.988281 -5.894531 18.367188 -6.285156 18.765625 -6.671875 C 18.984375 -6.953125 19.203125 -7.203125 19.421875 -7.421875 C 19.648438 -7.640625 19.847656 -7.863281 20.015625 -8.09375 C 20.015625 -8.09375 20.039062 -8.175781 20.09375 -8.34375 C 20.144531 -8.507812 20.171875 -8.617188 20.171875 -8.671875 C 20.671875 -9.453125 21.238281 -10.226562 21.875 -11 C 22.519531 -11.78125 23.148438 -12.53125 23.765625 -13.25 C 24.535156 -14.144531 25.253906 -15.050781 25.921875 -15.96875 C 26.597656 -16.882812 27.296875 -17.816406 28.015625 -18.765625 C 28.296875 -19.148438 28.644531 -19.632812 29.0625 -20.21875 C 29.476562 -20.800781 29.9375 -21.21875 30.4375 -21.46875 C 30.9375 -21.71875 31.40625 -21.453125 31.84375 -20.671875 L 31.84375 -20.59375 C 31.90625 -20.539062 31.9375 -20.539062 31.9375 -20.59375 Z M 11.25 -19.671875 C 11.03125 -19.285156 10.847656 -18.851562 10.703125 -18.375 C 10.566406 -17.90625 10.390625 -17.453125 10.171875 -17.015625 C 12.890625 -18.453125 15.222656 -20.3125 17.171875 -22.59375 L 18.59375 -24.421875 C 18.707031 -24.648438 18.859375 -24.847656 19.046875 -25.015625 C 19.242188 -25.179688 19.367188 -25.375 19.421875 -25.59375 C 19.484375 -25.8125 19.484375 -26.019531 19.421875 -26.21875 C 19.367188 -26.414062 19.367188 -26.625 19.421875 -26.84375 L 19.765625 -28.59375 C 19.816406 -29.039062 19.726562 -29.640625 19.5 -30.390625 C 19.28125 -31.140625 18.867188 -31.457031 18.265625 -31.34375 C 17.984375 -31.289062 17.703125 -31.109375 17.421875 -30.796875 C 17.148438 -30.492188 16.929688 -30.234375 16.765625 -30.015625 L 15.25 -28.015625 C 14.363281 -26.734375 13.640625 -25.394531 13.078125 -24 C 12.523438 -22.613281 11.945312 -21.253906 11.34375 -19.921875 C 11.34375 -19.921875 11.34375 -19.90625 11.34375 -19.875 C 11.34375 -19.851562 11.3125 -19.785156 11.25 -19.671875 Z M 11.25 -19.671875 "/></g></g></g><g fill="#8b0000" fill-opacity="1"><g transform="translate(267.243878, 81.075332)"><g><path d="M 33.09375 -19.59375 L 33.09375 -19.515625 C 33.207031 -18.617188 32.914062 -17.78125 32.21875 -17 C 31.53125 -16.226562 30.726562 -15.550781 29.8125 -14.96875 C 28.894531 -14.382812 28.128906 -13.867188 27.515625 -13.421875 C 26.285156 -12.535156 25.0625 -11.6875 23.84375 -10.875 C 22.625 -10.070312 21.347656 -9.3125 20.015625 -8.59375 C 19.679688 -8.425781 19.289062 -8.257812 18.84375 -8.09375 C 18.394531 -7.925781 18.003906 -7.703125 17.671875 -7.421875 C 17.234375 -7.035156 17.015625 -6.769531 17.015625 -6.625 C 17.015625 -6.488281 17.039062 -6.085938 17.09375 -5.421875 C 17.207031 -4.691406 17.304688 -3.9375 17.390625 -3.15625 C 17.472656 -2.382812 17.515625 -1.609375 17.515625 -0.828125 C 17.566406 0.335938 17.519531 1.503906 17.375 2.671875 C 17.238281 3.835938 16.953125 4.976562 16.515625 6.09375 C 15.503906 8.644531 14.015625 10.679688 12.046875 12.203125 C 10.078125 13.734375 7.644531 14.472656 4.75 14.421875 C 3.03125 14.367188 1.394531 14.050781 -0.15625 13.46875 C -1.71875 12.882812 -2.941406 11.976562 -3.828125 10.75 C -4.722656 9.53125 -5.003906 8.003906 -4.671875 6.171875 C -4.722656 6.222656 -4.789062 6.5 -4.875 7 C -4.957031 7.5 -5.023438 7.722656 -5.078125 7.671875 C -5.359375 7.503906 -5.414062 7.085938 -5.25 6.421875 C -5.082031 5.753906 -4.972656 5.304688 -4.921875 5.078125 C -4.421875 3.523438 -3.570312 2.132812 -2.375 0.90625 C -1.175781 -0.3125 0.03125 -1.390625 1.25 -2.328125 C 1.96875 -2.890625 2.675781 -3.429688 3.375 -3.953125 C 4.070312 -4.484375 4.78125 -4.972656 5.5 -5.421875 C 6.0625 -5.753906 6.8125 -6.171875 7.75 -6.671875 C 8.695312 -7.171875 9.195312 -7.695312 9.25 -8.25 C 9.363281 -8.863281 9.238281 -9.679688 8.875 -10.703125 C 8.519531 -11.734375 8.257812 -12.554688 8.09375 -13.171875 C 7.925781 -13.953125 7.726562 -14.757812 7.5 -15.59375 C 7.28125 -16.425781 7.113281 -17.257812 7 -18.09375 C 6.945312 -18.644531 6.960938 -19.113281 7.046875 -19.5 C 7.128906 -19.894531 7.113281 -20.34375 7 -20.84375 C 6.78125 -21.507812 6.585938 -22.160156 6.421875 -22.796875 C 6.253906 -23.441406 6.144531 -24.125 6.09375 -24.84375 C 6.03125 -25.5625 6.023438 -26.269531 6.078125 -26.96875 C 6.140625 -27.664062 6.28125 -28.347656 6.5 -29.015625 C 6.664062 -29.515625 7.023438 -30.125 7.578125 -30.84375 C 8.140625 -31.570312 8.796875 -32.226562 9.546875 -32.8125 C 10.296875 -33.394531 11.054688 -33.78125 11.828125 -33.96875 C 12.609375 -34.164062 13.28125 -34.015625 13.84375 -33.515625 C 13.84375 -33.734375 14.019531 -33.578125 14.375 -33.046875 C 14.738281 -32.523438 14.945312 -32.125 15 -31.84375 C 15 -31.738281 14.972656 -31.40625 14.921875 -30.84375 C 14.867188 -30.289062 14.769531 -29.765625 14.625 -29.265625 C 14.488281 -28.765625 14.335938 -28.515625 14.171875 -28.515625 C 14.171875 -28.515625 14.195312 -28.664062 14.25 -28.96875 C 14.3125 -29.28125 14.367188 -29.570312 14.421875 -29.84375 C 14.203125 -29.289062 13.96875 -28.722656 13.71875 -28.140625 C 13.46875 -27.554688 13.3125 -26.957031 13.25 -26.34375 C 13.195312 -25.789062 13.210938 -25.222656 13.296875 -24.640625 C 13.378906 -24.054688 13.445312 -23.515625 13.5 -23.015625 C 13.5 -23.234375 13.554688 -23.367188 13.671875 -23.421875 C 13.671875 -23.421875 13.738281 -23.019531 13.875 -22.21875 C 14.019531 -21.414062 14.226562 -20.398438 14.5 -19.171875 C 14.78125 -17.953125 15.03125 -16.757812 15.25 -15.59375 C 14.976562 -16.707031 14.675781 -17.875 14.34375 -19.09375 C 14.007812 -20.3125 13.757812 -21.3125 13.59375 -22.09375 C 13.925781 -20.257812 14.300781 -18.4375 14.71875 -16.625 C 15.132812 -14.820312 15.535156 -13.03125 15.921875 -11.25 C 16.035156 -11.363281 16.066406 -11.585938 16.015625 -11.921875 C 16.117188 -11.585938 16.171875 -11.421875 16.171875 -11.421875 C 18.003906 -12.367188 19.78125 -13.300781 21.5 -14.21875 C 23.226562 -15.132812 24.957031 -16.117188 26.6875 -17.171875 C 27.457031 -17.671875 28.234375 -18.269531 29.015625 -18.96875 C 29.796875 -19.664062 30.570312 -20.207031 31.34375 -20.59375 C 32.289062 -20.976562 32.875 -20.644531 33.09375 -19.59375 Z M -0.578125 9.09375 C 0.0234375 9.3125 0.644531 9.378906 1.28125 9.296875 C 1.925781 9.210938 2.523438 9.113281 3.078125 9 L 5.421875 8.09375 C 5.472656 8.144531 5.375 8.253906 5.125 8.421875 C 4.875 8.585938 4.75 8.695312 4.75 8.75 C 5.695312 8.195312 6.5625 7.445312 7.34375 6.5 L 6.921875 6.84375 C 7.140625 6.613281 7.429688 6.164062 7.796875 5.5 C 8.160156 4.832031 8.492188 4.191406 8.796875 3.578125 C 9.097656 2.972656 9.25 2.613281 9.25 2.5 C 9.53125 1.5 9.695312 0.5 9.75 -0.5 C 9.8125 -1.5 9.8125 -2.5 9.75 -3.5 C 9.695312 -3.445312 9.613281 -3.390625 9.5 -3.328125 C 9.394531 -3.273438 9.285156 -3.222656 9.171875 -3.171875 L 9.75 -3.671875 L 8.75 -3.078125 C 9.03125 -3.191406 8.90625 -3.039062 8.375 -2.625 C 7.851562 -2.207031 7.535156 -1.941406 7.421875 -1.828125 L 4.921875 -0.171875 C 4.085938 0.390625 3.238281 1.003906 2.375 1.671875 C 1.507812 2.335938 0.773438 3.085938 0.171875 3.921875 C -0.0546875 4.253906 -0.378906 4.796875 -0.796875 5.546875 C -1.210938 6.296875 -1.460938 7.015625 -1.546875 7.703125 C -1.628906 8.398438 -1.304688 8.863281 -0.578125 9.09375 Z M 9.921875 11.5 C 11.035156 11 11.910156 10.390625 12.546875 9.671875 C 13.179688 8.953125 13.722656 8.144531 14.171875 7.25 C 12.953125 8.976562 11.367188 10.328125 9.421875 11.296875 C 7.472656 12.265625 5.472656 12.804688 3.421875 12.921875 C 5.703125 12.804688 7.867188 12.332031 9.921875 11.5 Z M 16.015625 -12.171875 C 15.953125 -12.453125 15.878906 -12.800781 15.796875 -13.21875 C 15.710938 -13.632812 15.613281 -14.0625 15.5 -14.5 C 15.726562 -13.664062 15.898438 -12.890625 16.015625 -12.171875 Z M 17.09375 -3.5 C 17.09375 -3.550781 17.078125 -3.617188 17.046875 -3.703125 C 17.023438 -3.785156 17.015625 -3.859375 17.015625 -3.921875 C 17.015625 -3.691406 17.039062 -3.550781 17.09375 -3.5 Z M 17.09375 -3.5 "/></g></g></g><g fill="#8b0000" fill-opacity="1"><g transform="translate(294.257387, 81.075332)"><g><path d="M 33.09375 -19.59375 L 33.09375 -19.515625 C 33.207031 -18.617188 32.914062 -17.78125 32.21875 -17 C 31.53125 -16.226562 30.726562 -15.550781 29.8125 -14.96875 C 28.894531 -14.382812 28.128906 -13.867188 27.515625 -13.421875 C 26.285156 -12.535156 25.0625 -11.6875 23.84375 -10.875 C 22.625 -10.070312 21.347656 -9.3125 20.015625 -8.59375 C 19.679688 -8.425781 19.289062 -8.257812 18.84375 -8.09375 C 18.394531 -7.925781 18.003906 -7.703125 17.671875 -7.421875 C 17.234375 -7.035156 17.015625 -6.769531 17.015625 -6.625 C 17.015625 -6.488281 17.039062 -6.085938 17.09375 -5.421875 C 17.207031 -4.691406 17.304688 -3.9375 17.390625 -3.15625 C 17.472656 -2.382812 17.515625 -1.609375 17.515625 -0.828125 C 17.566406 0.335938 17.519531 1.503906 17.375 2.671875 C 17.238281 3.835938 16.953125 4.976562 16.515625 6.09375 C 15.503906 8.644531 14.015625 10.679688 12.046875 12.203125 C 10.078125 13.734375 7.644531 14.472656 4.75 14.421875 C 3.03125 14.367188 1.394531 14.050781 -0.15625 13.46875 C -1.71875 12.882812 -2.941406 11.976562 -3.828125 10.75 C -4.722656 9.53125 -5.003906 8.003906 -4.671875 6.171875 C -4.722656 6.222656 -4.789062 6.5 -4.875 7 C -4.957031 7.5 -5.023438 7.722656 -5.078125 7.671875 C -5.359375 7.503906 -5.414062 7.085938 -5.25 6.421875 C -5.082031 5.753906 -4.972656 5.304688 -4.921875 5.078125 C -4.421875 3.523438 -3.570312 2.132812 -2.375 0.90625 C -1.175781 -0.3125 0.03125 -1.390625 1.25 -2.328125 C 1.96875 -2.890625 2.675781 -3.429688 3.375 -3.953125 C 4.070312 -4.484375 4.78125 -4.972656 5.5 -5.421875 C 6.0625 -5.753906 6.8125 -6.171875 7.75 -6.671875 C 8.695312 -7.171875 9.195312 -7.695312 9.25 -8.25 C 9.363281 -8.863281 9.238281 -9.679688 8.875 -10.703125 C 8.519531 -11.734375 8.257812 -12.554688 8.09375 -13.171875 C 7.925781 -13.953125 7.726562 -14.757812 7.5 -15.59375 C 7.28125 -16.425781 7.113281 -17.257812 7 -18.09375 C 6.945312 -18.644531 6.960938 -19.113281 7.046875 -19.5 C 7.128906 -19.894531 7.113281 -20.34375 7 -20.84375 C 6.78125 -21.507812 6.585938 -22.160156 6.421875 -22.796875 C 6.253906 -23.441406 6.144531 -24.125 6.09375 -24.84375 C 6.03125 -25.5625 6.023438 -26.269531 6.078125 -26.96875 C 6.140625 -27.664062 6.28125 -28.347656 6.5 -29.015625 C 6.664062 -29.515625 7.023438 -30.125 7.578125 -30.84375 C 8.140625 -31.570312 8.796875 -32.226562 9.546875 -32.8125 C 10.296875 -33.394531 11.054688 -33.78125 11.828125 -33.96875 C 12.609375 -34.164062 13.28125 -34.015625 13.84375 -33.515625 C 13.84375 -33.734375 14.019531 -33.578125 14.375 -33.046875 C 14.738281 -32.523438 14.945312 -32.125 15 -31.84375 C 15 -31.738281 14.972656 -31.40625 14.921875 -30.84375 C 14.867188 -30.289062 14.769531 -29.765625 14.625 -29.265625 C 14.488281 -28.765625 14.335938 -28.515625 14.171875 -28.515625 C 14.171875 -28.515625 14.195312 -28.664062 14.25 -28.96875 C 14.3125 -29.28125 14.367188 -29.570312 14.421875 -29.84375 C 14.203125 -29.289062 13.96875 -28.722656 13.71875 -28.140625 C 13.46875 -27.554688 13.3125 -26.957031 13.25 -26.34375 C 13.195312 -25.789062 13.210938 -25.222656 13.296875 -24.640625 C 13.378906 -24.054688 13.445312 -23.515625 13.5 -23.015625 C 13.5 -23.234375 13.554688 -23.367188 13.671875 -23.421875 C 13.671875 -23.421875 13.738281 -23.019531 13.875 -22.21875 C 14.019531 -21.414062 14.226562 -20.398438 14.5 -19.171875 C 14.78125 -17.953125 15.03125 -16.757812 15.25 -15.59375 C 14.976562 -16.707031 14.675781 -17.875 14.34375 -19.09375 C 14.007812 -20.3125 13.757812 -21.3125 13.59375 -22.09375 C 13.925781 -20.257812 14.300781 -18.4375 14.71875 -16.625 C 15.132812 -14.820312 15.535156 -13.03125 15.921875 -11.25 C 16.035156 -11.363281 16.066406 -11.585938 16.015625 -11.921875 C 16.117188 -11.585938 16.171875 -11.421875 16.171875 -11.421875 C 18.003906 -12.367188 19.78125 -13.300781 21.5 -14.21875 C 23.226562 -15.132812 24.957031 -16.117188 26.6875 -17.171875 C 27.457031 -17.671875 28.234375 -18.269531 29.015625 -18.96875 C 29.796875 -19.664062 30.570312 -20.207031 31.34375 -20.59375 C 32.289062 -20.976562 32.875 -20.644531 33.09375 -19.59375 Z M -0.578125 9.09375 C 0.0234375 9.3125 0.644531 9.378906 1.28125 9.296875 C 1.925781 9.210938 2.523438 9.113281 3.078125 9 L 5.421875 8.09375 C 5.472656 8.144531 5.375 8.253906 5.125 8.421875 C 4.875 8.585938 4.75 8.695312 4.75 8.75 C 5.695312 8.195312 6.5625 7.445312 7.34375 6.5 L 6.921875 6.84375 C 7.140625 6.613281 7.429688 6.164062 7.796875 5.5 C 8.160156 4.832031 8.492188 4.191406 8.796875 3.578125 C 9.097656 2.972656 9.25 2.613281 9.25 2.5 C 9.53125 1.5 9.695312 0.5 9.75 -0.5 C 9.8125 -1.5 9.8125 -2.5 9.75 -3.5 C 9.695312 -3.445312 9.613281 -3.390625 9.5 -3.328125 C 9.394531 -3.273438 9.285156 -3.222656 9.171875 -3.171875 L 9.75 -3.671875 L 8.75 -3.078125 C 9.03125 -3.191406 8.90625 -3.039062 8.375 -2.625 C 7.851562 -2.207031 7.535156 -1.941406 7.421875 -1.828125 L 4.921875 -0.171875 C 4.085938 0.390625 3.238281 1.003906 2.375 1.671875 C 1.507812 2.335938 0.773438 3.085938 0.171875 3.921875 C -0.0546875 4.253906 -0.378906 4.796875 -0.796875 5.546875 C -1.210938 6.296875 -1.460938 7.015625 -1.546875 7.703125 C -1.628906 8.398438 -1.304688 8.863281 -0.578125 9.09375 Z M 9.921875 11.5 C 11.035156 11 11.910156 10.390625 12.546875 9.671875 C 13.179688 8.953125 13.722656 8.144531 14.171875 7.25 C 12.953125 8.976562 11.367188 10.328125 9.421875 11.296875 C 7.472656 12.265625 5.472656 12.804688 3.421875 12.921875 C 5.703125 12.804688 7.867188 12.332031 9.921875 11.5 Z M 16.015625 -12.171875 C 15.953125 -12.453125 15.878906 -12.800781 15.796875 -13.21875 C 15.710938 -13.632812 15.613281 -14.0625 15.5 -14.5 C 15.726562 -13.664062 15.898438 -12.890625 16.015625 -12.171875 Z M 17.09375 -3.5 C 17.09375 -3.550781 17.078125 -3.617188 17.046875 -3.703125 C 17.023438 -3.785156 17.015625 -3.859375 17.015625 -3.921875 C 17.015625 -3.691406 17.039062 -3.550781 17.09375 -3.5 Z M 17.09375 -3.5 "/></g></g></g><g fill="#8b0000" fill-opacity="1"><g transform="translate(321.270896, 81.075332)"><g><path d="M 42.4375 -20.09375 C 42.550781 -19.144531 42.273438 -18.195312 41.609375 -17.25 C 40.941406 -16.3125 40.441406 -15.453125 40.109375 -14.671875 C 39.546875 -13.453125 38.957031 -12.257812 38.34375 -11.09375 C 37.738281 -9.925781 37.101562 -8.785156 36.4375 -7.671875 C 35.65625 -6.453125 34.859375 -5.242188 34.046875 -4.046875 C 33.242188 -2.847656 32.375 -1.691406 31.4375 -0.578125 C 30.707031 0.359375 29.828125 1.328125 28.796875 2.328125 C 27.773438 3.328125 26.625 3.941406 25.34375 4.171875 C 23.957031 4.390625 22.722656 4.023438 21.640625 3.078125 C 20.554688 2.140625 19.789062 1.054688 19.34375 -0.171875 C 18.34375 -2.609375 18.0625 -5.09375 18.5 -7.625 C 18.945312 -10.15625 19.535156 -12.613281 20.265625 -15 C 20.265625 -15 20.265625 -15.148438 20.265625 -15.453125 C 20.265625 -15.765625 20.289062 -16.0625 20.34375 -16.34375 C 19.957031 -15.726562 19.5 -15.070312 18.96875 -14.375 C 18.4375 -13.6875 17.976562 -13.035156 17.59375 -12.421875 C 17.09375 -11.640625 16.632812 -10.859375 16.21875 -10.078125 C 15.800781 -9.304688 15.3125 -8.53125 14.75 -7.75 C 14.644531 -7.582031 14.203125 -7.039062 13.421875 -6.125 C 12.640625 -5.207031 11.765625 -4.21875 10.796875 -3.15625 C 9.828125 -2.101562 8.925781 -1.257812 8.09375 -0.625 C 7.257812 0.0078125 6.726562 0.160156 6.5 -0.171875 C 6.5 -0.171875 6.664062 -0.253906 7 -0.421875 C 7.332031 -0.585938 7.472656 -0.695312 7.421875 -0.75 C 6.367188 -0.03125 5.203125 0.132812 3.921875 -0.25 C 4.191406 -0.0820312 4.300781 0 4.25 0 C 3.632812 0.0507812 3.0625 -0.171875 2.53125 -0.671875 C 2.007812 -1.171875 1.566406 -1.753906 1.203125 -2.421875 C 0.847656 -3.085938 0.585938 -3.640625 0.421875 -4.078125 C 0.0859375 -5.253906 -0.0625 -6.46875 -0.03125 -7.71875 C -0.0078125 -8.96875 0.109375 -10.175781 0.328125 -11.34375 C 0.773438 -13.78125 1.5 -16.25 2.5 -18.75 C 3.5 -21.257812 4.695312 -23.539062 6.09375 -25.59375 C 6.476562 -26.09375 6.863281 -26.609375 7.25 -27.140625 C 7.644531 -27.671875 8.117188 -28.128906 8.671875 -28.515625 C 9.003906 -28.796875 9.320312 -29.003906 9.625 -29.140625 C 9.9375 -29.273438 10.285156 -29.457031 10.671875 -29.6875 C 11.285156 -30.238281 11.910156 -30.707031 12.546875 -31.09375 C 13.179688 -31.488281 13.945312 -31.6875 14.84375 -31.6875 C 16.226562 -31.6875 17.351562 -31.253906 18.21875 -30.390625 C 19.082031 -29.523438 19.765625 -28.476562 20.265625 -27.25 C 20.765625 -26.03125 21.148438 -24.894531 21.421875 -23.84375 C 22.085938 -24.726562 22.90625 -25.570312 23.875 -26.375 C 24.851562 -27.1875 25.882812 -27.660156 26.96875 -27.796875 C 28.050781 -27.941406 29.09375 -27.375 30.09375 -26.09375 C 30.925781 -25.09375 31.191406 -24.1875 30.890625 -23.375 C 30.585938 -22.570312 30.210938 -21.703125 29.765625 -20.765625 C 28.984375 -19.316406 28.285156 -17.742188 27.671875 -16.046875 C 27.066406 -14.347656 26.597656 -12.75 26.265625 -11.25 C 26.316406 -11.363281 26.398438 -11.640625 26.515625 -12.078125 C 26.628906 -12.523438 26.769531 -12.78125 26.9375 -12.84375 C 27.039062 -12.894531 27.007812 -12.488281 26.84375 -11.625 C 26.675781 -10.769531 26.453125 -9.726562 26.171875 -8.5 C 25.898438 -7.28125 25.691406 -6.085938 25.546875 -4.921875 C 25.410156 -3.753906 25.4375 -2.835938 25.625 -2.171875 C 25.820312 -1.503906 26.269531 -1.320312 26.96875 -1.625 C 27.664062 -1.925781 28.738281 -2.96875 30.1875 -4.75 C 31.457031 -6.363281 32.675781 -8.015625 33.84375 -9.703125 C 35.007812 -11.398438 36.148438 -13.113281 37.265625 -14.84375 C 37.765625 -15.625 38.265625 -16.429688 38.765625 -17.265625 C 39.265625 -18.097656 39.796875 -18.898438 40.359375 -19.671875 C 40.523438 -19.898438 40.773438 -20.164062 41.109375 -20.46875 C 41.441406 -20.769531 41.742188 -20.9375 42.015625 -20.96875 C 42.296875 -21 42.4375 -20.707031 42.4375 -20.09375 Z M 18.515625 -19.515625 C 18.734375 -19.847656 18.851562 -20.066406 18.875 -20.171875 C 18.90625 -20.285156 18.921875 -20.507812 18.921875 -20.84375 C 18.921875 -21.0625 18.78125 -21.601562 18.5 -22.46875 C 18.226562 -23.332031 17.992188 -24.179688 17.796875 -25.015625 C 17.609375 -25.847656 17.566406 -26.320312 17.671875 -26.4375 C 17.734375 -26.488281 17.832031 -26.304688 17.96875 -25.890625 C 18.101562 -25.472656 18.238281 -25.054688 18.375 -24.640625 C 18.519531 -24.222656 18.59375 -23.984375 18.59375 -23.921875 C 18.539062 -24.253906 18.441406 -24.738281 18.296875 -25.375 C 18.160156 -26.019531 17.953125 -26.617188 17.671875 -27.171875 C 17.398438 -27.734375 17.015625 -28.015625 16.515625 -28.015625 C 15.617188 -28.015625 14.78125 -27.566406 14 -26.671875 C 13.226562 -25.785156 12.578125 -24.785156 12.046875 -23.671875 C 11.515625 -22.566406 11.082031 -21.679688 10.75 -21.015625 C 9.914062 -19.117188 9.148438 -17.179688 8.453125 -15.203125 C 7.765625 -13.234375 7.253906 -11.222656 6.921875 -9.171875 C 6.972656 -9.453125 7.179688 -10.175781 7.546875 -11.34375 C 7.910156 -12.507812 8.367188 -13.882812 8.921875 -15.46875 C 9.472656 -17.050781 10.039062 -18.601562 10.625 -20.125 C 11.207031 -21.65625 11.765625 -22.921875 12.296875 -23.921875 C 12.828125 -24.921875 13.226562 -25.421875 13.5 -25.421875 C 13.28125 -25.367188 12.945312 -24.894531 12.5 -24 C 12.0625 -23.113281 11.578125 -22.003906 11.046875 -20.671875 C 10.515625 -19.335938 10 -17.988281 9.5 -16.625 C 9 -15.269531 8.582031 -14.078125 8.25 -13.046875 C 7.914062 -12.015625 7.722656 -11.390625 7.671875 -11.171875 C 7.617188 -10.953125 7.476562 -10.425781 7.25 -9.59375 C 7.03125 -8.757812 6.90625 -7.953125 6.875 -7.171875 C 6.851562 -6.390625 7.035156 -5.914062 7.421875 -5.75 C 7.703125 -5.695312 8.078125 -5.863281 8.546875 -6.25 C 9.015625 -6.644531 9.457031 -7.101562 9.875 -7.625 C 10.289062 -8.15625 10.554688 -8.503906 10.671875 -8.671875 C 12.285156 -10.617188 13.785156 -12.617188 15.171875 -14.671875 L 17.34375 -17.765625 C 17.507812 -18.035156 17.6875 -18.320312 17.875 -18.625 C 18.070312 -18.9375 18.285156 -19.234375 18.515625 -19.515625 Z M 20.421875 -15.421875 L 21.171875 -17.421875 L 20.765625 -16.84375 C 20.703125 -16.726562 20.628906 -16.460938 20.546875 -16.046875 C 20.460938 -15.628906 20.421875 -15.421875 20.421875 -15.421875 Z M 19.171875 -20.59375 C 19.398438 -20.8125 19.398438 -21.085938 19.171875 -21.421875 Z M 19.171875 -20.59375 "/></g></g></g><g fill="#8b0000" fill-opacity="1"><g transform="translate(357.622409, 81.075332)"><g><path d="M 42.515625 -20.015625 C 42.679688 -19.234375 42.5 -18.632812 41.96875 -18.21875 C 41.445312 -17.800781 40.910156 -17.367188 40.359375 -16.921875 L 33.59375 -11.75 C 32.375 -10.75 31.148438 -9.765625 29.921875 -8.796875 C 28.703125 -7.828125 27.507812 -6.8125 26.34375 -5.75 C 25.789062 -5.300781 25.207031 -4.84375 24.59375 -4.375 C 23.976562 -3.90625 23.421875 -3.421875 22.921875 -2.921875 C 22.421875 -2.359375 22.070312 -1.742188 21.875 -1.078125 C 21.6875 -0.410156 21.484375 0.28125 21.265625 1 C 19.867188 5.78125 18.421875 10.601562 16.921875 15.46875 C 15.421875 20.332031 13.421875 24.929688 10.921875 29.265625 C 10.140625 30.648438 9.304688 32.007812 8.421875 33.34375 C 7.535156 34.675781 6.203125 35.566406 4.421875 36.015625 C 2.359375 36.515625 0.523438 36.097656 -1.078125 34.765625 C -2.691406 33.429688 -3.890625 31.875 -4.671875 30.09375 C -5.503906 28.039062 -5.613281 26.066406 -5 24.171875 C -4.382812 22.285156 -3.46875 20.484375 -2.25 18.765625 C -1.195312 17.265625 -0.113281 15.773438 1 14.296875 C 2.113281 12.828125 3.28125 11.394531 4.5 10 C 5.332031 9.0625 6.207031 8.160156 7.125 7.296875 C 8.039062 6.429688 8.945312 5.582031 9.84375 4.75 C 10.726562 3.914062 11.695312 3.066406 12.75 2.203125 C 13.8125 1.347656 14.726562 0.445312 15.5 -0.5 C 16.28125 -1.445312 16.820312 -2.695312 17.125 -4.25 C 17.4375 -5.8125 17.785156 -7.203125 18.171875 -8.421875 L 20.015625 -14.921875 C 19.117188 -13.367188 18.128906 -11.851562 17.046875 -10.375 C 15.960938 -8.90625 14.894531 -7.445312 13.84375 -6 C 12.894531 -4.664062 11.90625 -3.289062 10.875 -1.875 C 9.851562 -0.457031 8.644531 0.664062 7.25 1.5 C 6.644531 1.882812 6.035156 2.132812 5.421875 2.25 C 4.804688 2.363281 4.191406 2.28125 3.578125 2 C 3.410156 1.882812 3.019531 1.578125 2.40625 1.078125 C 1.800781 0.578125 1.25 0.0351562 0.75 -0.546875 C 0.25 -1.128906 0.0546875 -1.503906 0.171875 -1.671875 C 0.273438 -1.554688 0.359375 -1.5 0.421875 -1.5 L 0.171875 -2.078125 C 0.222656 -1.804688 0.175781 -1.78125 0.03125 -2 C -0.101562 -2.21875 -0.253906 -2.476562 -0.421875 -2.78125 C -0.585938 -3.09375 -0.695312 -3.273438 -0.75 -3.328125 C -0.914062 -3.890625 -1.023438 -4.460938 -1.078125 -5.046875 C -1.140625 -5.628906 -1.171875 -6.195312 -1.171875 -6.75 C -1.171875 -7.644531 -1.140625 -8.550781 -1.078125 -9.46875 C -1.023438 -10.382812 -0.914062 -11.285156 -0.75 -12.171875 C -0.632812 -12.953125 -0.410156 -13.71875 -0.078125 -14.46875 C 0.253906 -15.21875 0.613281 -15.925781 1 -16.59375 C 1.050781 -16.707031 1.21875 -17 1.5 -17.46875 C 1.78125 -17.9375 2.085938 -18.394531 2.421875 -18.84375 C 2.753906 -19.289062 2.972656 -19.484375 3.078125 -19.421875 C 3.140625 -19.421875 3.097656 -19.320312 2.953125 -19.125 C 2.816406 -18.9375 2.773438 -18.816406 2.828125 -18.765625 L 4.25 -20.84375 C 4.082031 -20.675781 3.941406 -20.59375 3.828125 -20.59375 C 3.660156 -20.707031 3.953125 -21.222656 4.703125 -22.140625 C 5.460938 -23.054688 6.367188 -24.109375 7.421875 -25.296875 C 8.472656 -26.492188 9.457031 -27.578125 10.375 -28.546875 C 11.289062 -29.523438 11.863281 -30.097656 12.09375 -30.265625 C 12.757812 -30.929688 13.453125 -31.554688 14.171875 -32.140625 C 14.890625 -32.722656 15.671875 -33.207031 16.515625 -33.59375 C 16.953125 -33.875 17.335938 -34.015625 17.671875 -34.015625 C 18.003906 -34.015625 18.367188 -34.039062 18.765625 -34.09375 C 19.097656 -34.15625 19.359375 -34.253906 19.546875 -34.390625 C 19.742188 -34.523438 19.984375 -34.625 20.265625 -34.6875 C 21.265625 -34.957031 22.398438 -34.925781 23.671875 -34.59375 C 24.953125 -34.257812 25.898438 -33.675781 26.515625 -32.84375 C 26.847656 -32.507812 27.082031 -31.992188 27.21875 -31.296875 C 27.363281 -30.609375 27.351562 -29.972656 27.1875 -29.390625 C 27.019531 -28.804688 26.570312 -28.488281 25.84375 -28.4375 C 25.625 -28.4375 25.429688 -28.503906 25.265625 -28.640625 C 25.097656 -28.773438 24.898438 -28.898438 24.671875 -29.015625 L 24.921875 -28.765625 C 24.921875 -28.765625 24.503906 -28.773438 23.671875 -28.796875 C 22.835938 -28.828125 22.171875 -28.789062 21.671875 -28.6875 L 22.765625 -29.09375 C 21.097656 -28.820312 19.523438 -28.070312 18.046875 -26.84375 C 16.578125 -25.625 15.226562 -24.222656 14 -22.640625 C 12.78125 -21.054688 11.726562 -19.625 10.84375 -18.34375 C 11.007812 -18.5625 11.382812 -19.019531 11.96875 -19.71875 C 12.550781 -20.414062 13.203125 -21.207031 13.921875 -22.09375 C 14.640625 -22.976562 15.332031 -23.78125 16 -24.5 C 16.675781 -25.226562 17.207031 -25.757812 17.59375 -26.09375 C 17.207031 -25.757812 16.675781 -25.1875 16 -24.375 C 15.332031 -23.570312 14.640625 -22.726562 13.921875 -21.84375 C 13.203125 -20.957031 12.59375 -20.179688 12.09375 -19.515625 C 11.59375 -18.847656 11.285156 -18.457031 11.171875 -18.34375 C 10.054688 -16.726562 9 -15.03125 8 -13.25 C 7 -11.476562 6.195312 -9.644531 5.59375 -7.75 C 5.476562 -7.476562 5.320312 -6.921875 5.125 -6.078125 C 4.925781 -5.242188 4.785156 -4.394531 4.703125 -3.53125 C 4.617188 -2.675781 4.703125 -2.050781 4.953125 -1.65625 C 5.210938 -1.269531 5.703125 -1.359375 6.421875 -1.921875 C 7.535156 -2.691406 8.644531 -3.71875 9.75 -5 C 10.863281 -6.28125 11.835938 -7.476562 12.671875 -8.59375 C 12.554688 -8.476562 12.472656 -8.421875 12.421875 -8.421875 C 12.367188 -8.421875 12.453125 -8.613281 12.671875 -9 C 12.890625 -9.394531 13.148438 -9.8125 13.453125 -10.25 C 13.765625 -10.695312 13.945312 -10.976562 14 -11.09375 L 16.265625 -14.5 C 17.035156 -15.613281 17.8125 -16.769531 18.59375 -17.96875 C 19.375 -19.164062 20.148438 -20.316406 20.921875 -21.421875 C 21.253906 -21.867188 21.671875 -22.453125 22.171875 -23.171875 C 22.671875 -23.898438 23.171875 -24.375 23.671875 -24.59375 C 24.835938 -25.09375 25.976562 -25.144531 27.09375 -24.75 C 28.207031 -24.363281 29.023438 -23.695312 29.546875 -22.75 C 30.078125 -21.8125 29.984375 -20.757812 29.265625 -19.59375 C 28.148438 -17.644531 27.050781 -15.640625 25.96875 -13.578125 C 24.882812 -11.523438 24.007812 -9.445312 23.34375 -7.34375 C 23.457031 -7.28125 23.773438 -7.441406 24.296875 -7.828125 C 24.828125 -8.222656 25.425781 -8.710938 26.09375 -9.296875 C 26.757812 -9.878906 27.382812 -10.421875 27.96875 -10.921875 C 28.550781 -11.421875 28.925781 -11.753906 29.09375 -11.921875 C 30.039062 -12.703125 30.972656 -13.453125 31.890625 -14.171875 C 32.804688 -14.890625 33.738281 -15.585938 34.6875 -16.265625 C 35.40625 -16.816406 36.125 -17.328125 36.84375 -17.796875 C 37.570312 -18.273438 38.296875 -18.789062 39.015625 -19.34375 C 39.296875 -19.5625 39.6875 -19.878906 40.1875 -20.296875 C 40.6875 -20.710938 41.171875 -20.976562 41.640625 -21.09375 C 42.117188 -21.207031 42.410156 -20.847656 42.515625 -20.015625 Z M 13 8.34375 C 13.226562 7.726562 13.4375 7.113281 13.625 6.5 C 13.820312 5.894531 14.003906 5.285156 14.171875 4.671875 C 12.285156 6.390625 10.519531 8.179688 8.875 10.046875 C 7.238281 11.910156 5.613281 13.867188 4 15.921875 C 3.164062 17.035156 2.207031 18.34375 1.125 19.84375 C 0.0390625 21.34375 -0.816406 22.910156 -1.453125 24.546875 C -2.097656 26.191406 -2.195312 27.789062 -1.75 29.34375 C -1.363281 30.789062 -0.847656 31.640625 -0.203125 31.890625 C 0.429688 32.140625 1.109375 31.984375 1.828125 31.421875 C 2.554688 30.867188 3.265625 30.117188 3.953125 29.171875 C 4.648438 28.234375 5.265625 27.304688 5.796875 26.390625 C 6.328125 25.472656 6.703125 24.765625 6.921875 24.265625 C 8.085938 21.816406 9.113281 19.34375 10 16.84375 C 10.894531 14.34375 11.785156 11.8125 12.671875 9.25 C 12.617188 9.3125 12.660156 9.160156 12.796875 8.796875 C 12.929688 8.429688 13 8.28125 13 8.34375 Z M 12.671875 14.171875 L 12.671875 13.921875 C 12.054688 15.585938 11.375 17.210938 10.625 18.796875 C 9.875 20.378906 9.113281 21.976562 8.34375 23.59375 C 8.726562 22.925781 9.140625 22.269531 9.578125 21.625 C 10.023438 20.988281 10.445312 20.3125 10.84375 19.59375 C 11.226562 18.707031 11.570312 17.800781 11.875 16.875 C 12.1875 15.957031 12.453125 15.054688 12.671875 14.171875 Z M 8.5 -16.671875 L 10.09375 -19.265625 C 9.976562 -19.035156 9.820312 -18.820312 9.625 -18.625 C 9.4375 -18.4375 9.285156 -18.285156 9.171875 -18.171875 C 8.554688 -17.503906 8.054688 -16.835938 7.671875 -16.171875 C 7.285156 -15.503906 6.925781 -14.78125 6.59375 -14 C 6.925781 -14.445312 7.269531 -14.894531 7.625 -15.34375 C 7.988281 -15.789062 8.28125 -16.234375 8.5 -16.671875 Z M 8.421875 -14.5 L 9.421875 -16.171875 C 8.753906 -15.285156 8.171875 -14.367188 7.671875 -13.421875 Z M 8.421875 -14.5 "/></g></g></g><g fill="#8b0000" fill-opacity="1"><g transform="translate(394.05732, 81.075332)"><g><path d="M 31.9375 -20.59375 C 32.101562 -20.257812 32.144531 -19.976562 32.0625 -19.75 C 31.976562 -19.53125 31.820312 -19.285156 31.59375 -19.015625 L 29.015625 -15.59375 L 24.515625 -9.75 C 23.953125 -9.03125 23.335938 -8.304688 22.671875 -7.578125 C 22.003906 -6.859375 21.367188 -6.113281 20.765625 -5.34375 C 20.148438 -4.5 19.550781 -3.644531 18.96875 -2.78125 C 18.382812 -1.925781 17.734375 -1.109375 17.015625 -0.328125 C 16.285156 0.441406 15.472656 1.21875 14.578125 2 C 13.691406 2.78125 12.75 3.445312 11.75 4 C 10.414062 4.71875 9 4.859375 7.5 4.421875 C 6.445312 4.140625 5.445312 3.675781 4.5 3.03125 C 3.550781 2.394531 2.71875 1.660156 2 0.828125 C 1.78125 0.554688 1.585938 0.304688 1.421875 0.078125 C 1.253906 -0.140625 1.140625 -0.414062 1.078125 -0.75 C 1.023438 -1.03125 0.984375 -1.304688 0.953125 -1.578125 C 0.929688 -1.859375 0.921875 -2.140625 0.921875 -2.421875 C 0.859375 -2.921875 0.894531 -3.378906 1.03125 -3.796875 C 1.175781 -4.210938 1.273438 -4.671875 1.328125 -5.171875 C 1.441406 -5.722656 1.59375 -6.25 1.78125 -6.75 C 1.976562 -7.25 2.109375 -7.78125 2.171875 -8.34375 C 2.273438 -8.945312 2.394531 -9.515625 2.53125 -10.046875 C 2.675781 -10.578125 2.773438 -11.117188 2.828125 -11.671875 C 2.890625 -12.171875 2.90625 -12.679688 2.875 -13.203125 C 2.84375 -13.734375 2.882812 -14.25 3 -14.75 C 3.113281 -15.082031 3.265625 -15.414062 3.453125 -15.75 C 3.648438 -16.09375 3.804688 -16.457031 3.921875 -16.84375 C 3.804688 -16.625 3.664062 -16.390625 3.5 -16.140625 C 3.332031 -15.890625 3.222656 -15.648438 3.171875 -15.421875 C 3.054688 -15.085938 2.941406 -14.753906 2.828125 -14.421875 C 2.722656 -14.085938 2.613281 -13.78125 2.5 -13.5 C 2.382812 -13.164062 2.285156 -12.847656 2.203125 -12.546875 C 2.117188 -12.242188 2.023438 -11.925781 1.921875 -11.59375 C 1.753906 -11.195312 1.597656 -10.832031 1.453125 -10.5 C 1.316406 -10.164062 1.222656 -9.78125 1.171875 -9.34375 C 1.109375 -8.945312 1.09375 -8.566406 1.125 -8.203125 C 1.15625 -7.847656 1.140625 -7.476562 1.078125 -7.09375 C 1.023438 -6.695312 0.957031 -6.347656 0.875 -6.046875 C 0.789062 -5.742188 0.75 -5.394531 0.75 -5 C 0.75 -4.882812 0.773438 -4.726562 0.828125 -4.53125 C 0.890625 -4.34375 0.921875 -4.191406 0.921875 -4.078125 C 0.921875 -3.910156 0.890625 -3.726562 0.828125 -3.53125 C 0.773438 -3.34375 0.75 -3.140625 0.75 -2.921875 C 0.75 -2.523438 0.773438 -2.144531 0.828125 -1.78125 C 0.890625 -1.425781 0.945312 -1.023438 1 -0.578125 C 0.332031 -1.742188 0 -2.925781 0 -4.125 C 0 -5.320312 0.109375 -6.53125 0.328125 -7.75 C 0.554688 -9.03125 0.765625 -10.265625 0.953125 -11.453125 C 1.148438 -12.648438 1.390625 -13.863281 1.671875 -15.09375 C 2.222656 -17.539062 3.054688 -19.941406 4.171875 -22.296875 C 5.285156 -24.660156 6.617188 -26.816406 8.171875 -28.765625 C 9.453125 -30.484375 10.96875 -31.882812 12.71875 -32.96875 C 14.46875 -34.050781 16.453125 -34.375 18.671875 -33.9375 C 19.503906 -33.769531 20.335938 -33.488281 21.171875 -33.09375 C 22.003906 -32.707031 22.703125 -32.15625 23.265625 -31.4375 C 23.867188 -30.65625 24.171875 -29.789062 24.171875 -28.84375 C 24.171875 -27.90625 24.035156 -26.960938 23.765625 -26.015625 C 23.203125 -24.398438 22.3125 -22.9375 21.09375 -21.625 C 19.875 -20.320312 18.625 -19.117188 17.34375 -18.015625 C 16.789062 -17.566406 16.21875 -17.117188 15.625 -16.671875 C 15.039062 -16.234375 14.445312 -15.816406 13.84375 -15.421875 C 13.445312 -15.203125 13.015625 -14.992188 12.546875 -14.796875 C 12.078125 -14.597656 11.617188 -14.414062 11.171875 -14.25 L 9.75 -13.75 C 9.476562 -13.695312 9.285156 -13.65625 9.171875 -13.625 C 9.054688 -13.601562 8.945312 -13.453125 8.84375 -13.171875 C 8.613281 -12.785156 8.523438 -12.382812 8.578125 -11.96875 C 8.640625 -11.550781 8.613281 -11.117188 8.5 -10.671875 C 8.445312 -10.117188 8.347656 -9.59375 8.203125 -9.09375 C 8.066406 -8.59375 7.945312 -8.0625 7.84375 -7.5 C 7.613281 -6.5 7.398438 -5.398438 7.203125 -4.203125 C 7.015625 -3.015625 7.03125 -1.890625 7.25 -0.828125 C 7.476562 0.222656 8.019531 0.707031 8.875 0.625 C 9.738281 0.539062 10.679688 0.15625 11.703125 -0.53125 C 12.734375 -1.226562 13.691406 -1.96875 14.578125 -2.75 C 15.472656 -3.53125 16.085938 -4.054688 16.421875 -4.328125 C 16.867188 -4.722656 17.269531 -5.113281 17.625 -5.5 C 17.988281 -5.894531 18.367188 -6.285156 18.765625 -6.671875 C 18.984375 -6.953125 19.203125 -7.203125 19.421875 -7.421875 C 19.648438 -7.640625 19.847656 -7.863281 20.015625 -8.09375 C 20.015625 -8.09375 20.039062 -8.175781 20.09375 -8.34375 C 20.144531 -8.507812 20.171875 -8.617188 20.171875 -8.671875 C 20.671875 -9.453125 21.238281 -10.226562 21.875 -11 C 22.519531 -11.78125 23.148438 -12.53125 23.765625 -13.25 C 24.535156 -14.144531 25.253906 -15.050781 25.921875 -15.96875 C 26.597656 -16.882812 27.296875 -17.816406 28.015625 -18.765625 C 28.296875 -19.148438 28.644531 -19.632812 29.0625 -20.21875 C 29.476562 -20.800781 29.9375 -21.21875 30.4375 -21.46875 C 30.9375 -21.71875 31.40625 -21.453125 31.84375 -20.671875 L 31.84375 -20.59375 C 31.90625 -20.539062 31.9375 -20.539062 31.9375 -20.59375 Z M 11.25 -19.671875 C 11.03125 -19.285156 10.847656 -18.851562 10.703125 -18.375 C 10.566406 -17.90625 10.390625 -17.453125 10.171875 -17.015625 C 12.890625 -18.453125 15.222656 -20.3125 17.171875 -22.59375 L 18.59375 -24.421875 C 18.707031 -24.648438 18.859375 -24.847656 19.046875 -25.015625 C 19.242188 -25.179688 19.367188 -25.375 19.421875 -25.59375 C 19.484375 -25.8125 19.484375 -26.019531 19.421875 -26.21875 C 19.367188 -26.414062 19.367188 -26.625 19.421875 -26.84375 L 19.765625 -28.59375 C 19.816406 -29.039062 19.726562 -29.640625 19.5 -30.390625 C 19.28125 -31.140625 18.867188 -31.457031 18.265625 -31.34375 C 17.984375 -31.289062 17.703125 -31.109375 17.421875 -30.796875 C 17.148438 -30.492188 16.929688 -30.234375 16.765625 -30.015625 L 15.25 -28.015625 C 14.363281 -26.734375 13.640625 -25.394531 13.078125 -24 C 12.523438 -22.613281 11.945312 -21.253906 11.34375 -19.921875 C 11.34375 -19.921875 11.34375 -19.90625 11.34375 -19.875 C 11.34375 -19.851562 11.3125 -19.785156 11.25 -19.671875 Z M 11.25 -19.671875 "/></g></g></g><g fill="#8b0000" fill-opacity="1"><g transform="translate(169.4425, 133.297626)"><g><path d="M 9.4375 -14.71875 L 9.4375 0 L 5.375 0 L 5.375 -14.71875 L 0.140625 -14.71875 L 0.140625 -18.390625 L 14.6875 -18.390625 L 14.6875 -14.71875 Z M 9.4375 -14.71875 "/></g></g></g><g fill="#8b0000" fill-opacity="1"><g transform="translate(188.187258, 133.297626)"><g><path d="M 15.828125 -9.21875 C 15.828125 -10.175781 15.570312 -11.066406 15.0625 -11.890625 C 14.5625 -12.710938 13.898438 -13.375 13.078125 -13.875 C 12.253906 -14.375 11.363281 -14.625 10.40625 -14.625 C 9.46875 -14.625 8.582031 -14.375 7.75 -13.875 C 6.925781 -13.375 6.257812 -12.710938 5.75 -11.890625 C 5.25 -11.066406 5 -10.175781 5 -9.21875 C 5 -8.28125 5.25 -7.394531 5.75 -6.5625 C 6.257812 -5.738281 6.925781 -5.066406 7.75 -4.546875 C 8.582031 -4.035156 9.46875 -3.78125 10.40625 -3.78125 C 11.363281 -3.78125 12.253906 -4.035156 13.078125 -4.546875 C 13.898438 -5.066406 14.5625 -5.738281 15.0625 -6.5625 C 15.570312 -7.394531 15.828125 -8.28125 15.828125 -9.21875 Z M 19.875 -9.203125 C 19.875 -7.929688 19.617188 -6.722656 19.109375 -5.578125 C 18.609375 -4.441406 17.921875 -3.4375 17.046875 -2.5625 C 16.171875 -1.6875 15.164062 -0.992188 14.03125 -0.484375 C 12.894531 0.015625 11.6875 0.265625 10.40625 0.265625 C 9.144531 0.265625 7.941406 0.015625 6.796875 -0.484375 C 5.648438 -0.992188 4.640625 -1.6875 3.765625 -2.5625 C 2.898438 -3.4375 2.210938 -4.441406 1.703125 -5.578125 C 1.203125 -6.722656 0.953125 -7.929688 0.953125 -9.203125 C 0.953125 -10.472656 1.203125 -11.675781 1.703125 -12.8125 C 2.210938 -13.957031 2.898438 -14.960938 3.765625 -15.828125 C 4.640625 -16.703125 5.648438 -17.390625 6.796875 -17.890625 C 7.941406 -18.398438 9.144531 -18.65625 10.40625 -18.65625 C 11.6875 -18.65625 12.894531 -18.398438 14.03125 -17.890625 C 15.164062 -17.390625 16.171875 -16.703125 17.046875 -15.828125 C 17.921875 -14.960938 18.609375 -13.957031 19.109375 -12.8125 C 19.617188 -11.675781 19.875 -10.472656 19.875 -9.203125 Z M 19.875 -9.203125 "/></g></g></g><g fill="#8b0000" fill-opacity="1"><g transform="translate(212.936421, 133.297626)"><g/></g></g><g fill="#8b0000" fill-opacity="1"><g transform="translate(223.621219, 133.297626)"><g><path d="M 7 0 L 7 -8.796875 L 0.21875 -18.390625 L 5.0625 -18.390625 L 9.03125 -12.03125 L 13.015625 -18.390625 L 17.84375 -18.390625 L 11.0625 -8.796875 L 11.0625 0 Z M 7 0 "/></g></g></g><g fill="#8b0000" fill-opacity="1"><g transform="translate(245.611601, 133.297626)"><g><path d="M 15.828125 -9.21875 C 15.828125 -10.175781 15.570312 -11.066406 15.0625 -11.890625 C 14.5625 -12.710938 13.898438 -13.375 13.078125 -13.875 C 12.253906 -14.375 11.363281 -14.625 10.40625 -14.625 C 9.46875 -14.625 8.582031 -14.375 7.75 -13.875 C 6.925781 -13.375 6.257812 -12.710938 5.75 -11.890625 C 5.25 -11.066406 5 -10.175781 5 -9.21875 C 5 -8.28125 5.25 -7.394531 5.75 -6.5625 C 6.257812 -5.738281 6.925781 -5.066406 7.75 -4.546875 C 8.582031 -4.035156 9.46875 -3.78125 10.40625 -3.78125 C 11.363281 -3.78125 12.253906 -4.035156 13.078125 -4.546875 C 13.898438 -5.066406 14.5625 -5.738281 15.0625 -6.5625 C 15.570312 -7.394531 15.828125 -8.28125 15.828125 -9.21875 Z M 19.875 -9.203125 C 19.875 -7.929688 19.617188 -6.722656 19.109375 -5.578125 C 18.609375 -4.441406 17.921875 -3.4375 17.046875 -2.5625 C 16.171875 -1.6875 15.164062 -0.992188 14.03125 -0.484375 C 12.894531 0.015625 11.6875 0.265625 10.40625 0.265625 C 9.144531 0.265625 7.941406 0.015625 6.796875 -0.484375 C 5.648438 -0.992188 4.640625 -1.6875 3.765625 -2.5625 C 2.898438 -3.4375 2.210938 -4.441406 1.703125 -5.578125 C 1.203125 -6.722656 0.953125 -7.929688 0.953125 -9.203125 C 0.953125 -10.472656 1.203125 -11.675781 1.703125 -12.8125 C 2.210938 -13.957031 2.898438 -14.960938 3.765625 -15.828125 C 4.640625 -16.703125 5.648438 -17.390625 6.796875 -17.890625 C 7.941406 -18.398438 9.144531 -18.65625 10.40625 -18.65625 C 11.6875 -18.65625 12.894531 -18.398438 14.03125 -17.890625 C 15.164062 -17.390625 16.171875 -16.703125 17.046875 -15.828125 C 17.921875 -14.960938 18.609375 -13.957031 19.109375 -12.8125 C 19.617188 -11.675781 19.875 -10.472656 19.875 -9.203125 Z M 19.875 -9.203125 "/></g></g></g><g fill="#8b0000" fill-opacity="1"><g transform="translate(270.360764, 133.297626)"><g><path d="M 12.359375 -18.390625 L 16.421875 -18.390625 L 16.421875 -7.171875 C 16.421875 -4.710938 15.753906 -2.859375 14.421875 -1.609375 C 13.085938 -0.359375 11.21875 0.265625 8.8125 0.265625 C 6.414062 0.265625 4.550781 -0.359375 3.21875 -1.609375 C 1.882812 -2.859375 1.21875 -4.710938 1.21875 -7.171875 L 1.21875 -18.390625 L 5.28125 -18.390625 L 5.28125 -7.765625 C 5.28125 -6.503906 5.523438 -5.523438 6.015625 -4.828125 C 6.515625 -4.128906 7.445312 -3.78125 8.8125 -3.78125 C 10.207031 -3.78125 11.144531 -4.128906 11.625 -4.828125 C 12.113281 -5.523438 12.359375 -6.503906 12.359375 -7.765625 Z M 12.359375 -18.390625 "/></g></g></g><g fill="#8b0000" fill-opacity="1"><g transform="translate(291.918399, 133.297626)"><g/></g></g><g fill="#8b0000" fill-opacity="1"><g transform="translate(302.603198, 133.297626)"><g><path d="M 11.625 -7.03125 L 9.296875 -13.578125 L 6.984375 -7.03125 Z M 18.5 0 L 14.140625 0 L 12.8125 -3.703125 L 5.8125 -3.703125 L 4.484375 0 L 0.140625 0 L 7.59375 -18.390625 L 11.03125 -18.390625 Z M 18.5 0 "/></g></g></g><g fill="#8b0000" fill-opacity="1"><g transform="translate(325.161561, 133.297626)"><g><path d="M 1.625 0 L 1.625 -18.390625 L 5.6875 -18.390625 L 5.6875 -3.671875 L 12.28125 -3.671875 L 12.28125 0 Z M 1.625 0 "/></g></g></g><g fill="#8b0000" fill-opacity="1"><g transform="translate(342.310555, 133.297626)"><g><path d="M 1.625 0 L 1.625 -18.390625 L 5.6875 -18.390625 L 5.6875 -3.671875 L 12.28125 -3.671875 L 12.28125 0 Z M 1.625 0 "/></g></g></g></svg>