<svg xmlns="http://www.w3.org/2000/svg" xmlns:xlink="http://www.w3.org/1999/xlink" width="120" zoomAndPan="magnify" viewBox="0 0 90 89.999999" height="120" preserveAspectRatio="xMidYMid meet" version="1.0"><defs><clipPath id="b65c240fc3"><path d="M 45 0 C 20.148438 0 0 20.148438 0 45 C 0 69.851562 20.148438 90 45 90 C 69.851562 90 90 69.851562 90 45 C 90 20.148438 69.851562 0 45 0 Z M 45 0 " clip-rule="nonzero"/></clipPath><clipPath id="3b897d231b"><path d="M 1.972656 1.972656 L 88.027344 1.972656 L 88.027344 88.027344 L 1.972656 88.027344 Z M 1.972656 1.972656 " clip-rule="nonzero"/></clipPath><clipPath id="a5da202538"><path d="M 45 1.972656 C 21.238281 1.972656 1.972656 21.238281 1.972656 45 C 1.972656 68.761719 21.238281 88.027344 45 88.027344 C 68.761719 88.027344 88.027344 68.761719 88.027344 45 C 88.027344 21.238281 68.761719 1.972656 45 1.972656 Z M 45 1.972656 " clip-rule="nonzero"/></clipPath><clipPath id="e33db3ef33"><path d="M 9.21875 22 L 81 22 L 81 66.75 L 9.21875 66.75 Z M 9.21875 22 " clip-rule="nonzero"/></clipPath></defs><g clip-path="url(#b65c240fc3)"><rect x="-9" width="108" fill="#f5fbf9" y="-9" height="107.999999" fill-opacity="1"/></g><g clip-path="url(#3b897d231b)"><g clip-path="url(#a5da202538)"><path fill="#8b0000" d="M 1.972656 1.972656 L 88.027344 1.972656 L 88.027344 88.027344 L 1.972656 88.027344 Z M 1.972656 1.972656 " fill-opacity="1" fill-rule="nonzero"/></g></g><path fill="#ca2727" d="M 67.039062 14.644531 C 66.953125 15.277344 66.628906 15.753906 66.191406 16.191406 C 65.734375 16.648438 65.324219 17.171875 64.933594 17.695312 C 64.214844 18.675781 63.933594 19.742188 64.214844 20.964844 C 64.367188 21.683594 64.238281 22.292969 63.738281 22.839844 C 63.148438 23.46875 62.910156 24.277344 62.824219 25.082031 C 62.648438 26.761719 61.757812 28.023438 60.585938 29.09375 C 58.347656 31.164062 55.671875 32.144531 52.628906 31.773438 C 50.457031 31.511719 48.871094 30.269531 47.761719 28.394531 C 47.628906 28.15625 47.5 27.960938 47.175781 27.980469 C 46.976562 27.980469 46.804688 27.828125 46.695312 27.675781 C 46.566406 27.5 46.457031 27.523438 46.324219 27.675781 C 46.066406 27.9375 45.738281 28.046875 45.390625 27.894531 C 45.023438 27.742188 44.890625 27.414062 44.890625 27.042969 C 44.890625 26.414062 44.414062 26.019531 44.175781 25.539062 C 44.085938 25.367188 43.980469 25.496094 43.890625 25.585938 C 43.066406 26.414062 42 26.890625 40.957031 27.328125 C 40.066406 27.699219 39.175781 27.699219 38.175781 27.371094 C 38.523438 27.066406 38.871094 27 39.21875 27.023438 C 40.414062 27.109375 41.371094 26.476562 42.371094 25.976562 C 42.414062 25.953125 42.457031 25.910156 42.433594 25.824219 C 42.042969 25.84375 41.675781 25.976562 41.328125 26.105469 C 39.9375 26.628906 38.480469 26.78125 37.023438 26.78125 C 35.675781 26.78125 34.304688 26.828125 32.957031 26.871094 C 32.589844 26.890625 32.242188 26.828125 31.894531 26.671875 C 31.285156 26.390625 30.9375 25.933594 30.871094 25.257812 C 30.808594 24.539062 30.828125 23.839844 31.046875 23.164062 C 31.21875 22.664062 31.21875 22.183594 31.003906 21.703125 C 30.371094 20.375 30.65625 19.15625 31.4375 18 C 31.71875 17.609375 31.980469 17.195312 32.132812 16.734375 C 32.304688 16.257812 32.285156 15.800781 32.023438 15.386719 C 31.566406 14.6875 31.4375 13.925781 31.523438 13.097656 C 31.609375 12.269531 31.371094 11.460938 31.308594 10.632812 C 31.175781 9.285156 31.414062 9.023438 32.785156 9 C 34.21875 9 35.5 9.523438 36.675781 10.285156 C 39.195312 11.898438 41.414062 13.839844 43.175781 16.257812 C 43.609375 16.84375 43.957031 17.476562 44.238281 18.175781 C 44.390625 18.523438 44.542969 18.871094 44.847656 19.113281 C 44.980469 19.199219 45.042969 19.351562 45.152344 19.460938 C 45.328125 19.65625 45.371094 20.027344 45.609375 20.046875 C 45.828125 20.070312 46.042969 19.875 46.28125 19.765625 C 47.542969 19.21875 48.695312 18.480469 49.890625 17.804688 C 53.109375 15.996094 56.476562 14.558594 60.105469 13.75 C 61.84375 13.359375 63.585938 13.183594 65.34375 13.226562 C 65.628906 13.226562 65.886719 13.269531 66.148438 13.316406 C 66.800781 13.488281 67.128906 13.96875 67.039062 14.644531 Z M 67.039062 14.644531 " fill-opacity="1" fill-rule="nonzero"/><path fill="#fec4c4" d="M 64.800781 15.996094 C 64.28125 16.582031 63.605469 16.933594 62.910156 17.214844 C 61.042969 17.976562 59.148438 18.761719 57.238281 19.417969 C 55.585938 19.984375 53.867188 20.289062 52.152344 20.59375 C 50.78125 20.832031 49.433594 21.203125 48.042969 21.160156 C 47.890625 21.160156 47.847656 21.203125 47.871094 21.378906 C 48.128906 22.730469 47.890625 24.082031 47.761719 25.410156 C 47.71875 25.738281 47.761719 26.0625 47.671875 26.390625 C 47.566406 26.738281 47.128906 27.042969 46.804688 26.980469 C 46.71875 26.957031 46.652344 26.933594 46.628906 26.847656 C 46.628906 26.761719 46.71875 26.78125 46.78125 26.761719 C 47.066406 26.671875 47.128906 26.476562 47.152344 26.195312 C 47.238281 25.0625 47.347656 23.949219 47.433594 22.816406 C 47.476562 22.359375 47.390625 21.902344 47.324219 21.464844 C 47.304688 21.289062 47.21875 21.136719 47 21.117188 C 46.152344 21.007812 45.304688 20.832031 44.457031 20.875 C 43.5 20.898438 42.957031 21.53125 43.132812 22.488281 C 43.175781 22.6875 43.175781 22.902344 43.023438 23.054688 C 42.804688 23.273438 42.804688 23.515625 42.828125 23.773438 C 42.847656 24.820312 42.785156 25.890625 42.890625 26.933594 C 42.695312 26.695312 42.675781 26.390625 42.609375 26.105469 C 42.414062 25.277344 42.21875 24.429688 42.152344 23.578125 C 42.132812 23.316406 42.042969 23.207031 41.695312 23.207031 C 41.390625 23.207031 40.890625 23.359375 40.761719 22.816406 C 40.738281 22.707031 40.589844 22.707031 40.5 22.707031 C 39.21875 22.511719 37.9375 22.292969 36.652344 22.097656 C 36.132812 22.011719 35.632812 21.964844 35.109375 21.921875 C 34.957031 21.902344 34.828125 21.878906 34.632812 21.769531 C 35.5 21.792969 36.261719 21.878906 37.046875 21.859375 C 38.21875 21.835938 39.414062 21.945312 40.566406 22.164062 C 40.738281 22.207031 40.890625 22.183594 41.042969 22.011719 C 41.414062 21.53125 41.695312 21.488281 42.261719 21.726562 C 42.347656 21.769531 42.433594 21.8125 42.5 21.703125 C 42.566406 21.550781 42.433594 21.507812 42.328125 21.445312 C 41.804688 21.136719 41.285156 20.855469 40.785156 20.527344 C 39.695312 19.851562 38.785156 18.9375 37.785156 18.152344 C 37.4375 17.871094 37.089844 17.585938 36.742188 17.304688 C 36.957031 17.28125 37.109375 17.367188 37.242188 17.476562 C 38.980469 18.652344 40.71875 19.808594 42.5 20.921875 C 42.652344 21.007812 42.738281 21.09375 42.914062 20.898438 C 43.21875 20.484375 43.695312 20.332031 44.175781 20.308594 C 45.347656 20.265625 46.476562 20.460938 47.566406 20.875 C 47.914062 21.007812 48.28125 20.898438 48.609375 20.832031 C 51.542969 20.265625 54.519531 19.917969 57.324219 18.871094 C 59.433594 18.085938 61.5625 17.367188 63.605469 16.386719 C 63.933594 16.234375 64.238281 16.015625 64.519531 15.777344 C 64.800781 15.515625 65.039062 15.277344 64.996094 14.820312 C 65.238281 15.058594 65.148438 15.582031 64.800781 15.996094 Z M 33.046875 12.160156 C 34.523438 13.730469 36.242188 15.015625 38.042969 16.191406 C 39.738281 17.304688 41.4375 18.371094 42.804688 19.894531 C 42.847656 19.941406 42.890625 20.027344 43.023438 19.960938 C 43 19.894531 42.980469 19.832031 42.933594 19.765625 C 42.433594 18.871094 41.71875 18.21875 40.914062 17.609375 C 38.847656 16.039062 36.589844 14.710938 34.652344 12.964844 C 33.914062 12.289062 33.175781 11.613281 32.523438 10.851562 C 32.199219 10.460938 31.9375 10.003906 31.699219 9.542969 C 31.566406 9.894531 31.632812 10.175781 31.785156 10.460938 C 32.132812 11.09375 32.566406 11.636719 33.046875 12.160156 Z M 49.890625 23.796875 C 50.152344 23.601562 50.28125 23.296875 50.566406 23.101562 C 51.019531 22.75 51.566406 22.859375 52.0625 22.816406 C 53.433594 22.6875 54.804688 22.640625 56.195312 22.578125 C 57.695312 22.511719 59.171875 22.46875 60.671875 22.402344 C 60.890625 22.402344 61.085938 22.359375 61.34375 22.25 C 59.738281 22.25 58.214844 22.316406 56.695312 22.292969 C 55.367188 22.273438 54.042969 22.273438 52.714844 22.25 C 52.414062 22.25 52.085938 22.25 51.78125 22.292969 C 51.476562 22.335938 51.019531 22.46875 50.847656 22.226562 C 50.566406 21.902344 50.28125 21.902344 49.957031 21.921875 C 49.804688 21.921875 49.695312 21.859375 49.585938 21.703125 C 49.585938 22.273438 49.371094 22.578125 48.871094 22.621094 C 48.824219 22.621094 48.761719 22.640625 48.71875 22.640625 C 48.628906 22.664062 48.542969 22.730469 48.523438 22.816406 C 48.5 22.925781 48.585938 22.96875 48.671875 23.011719 C 48.804688 23.078125 48.933594 23.144531 48.871094 23.296875 C 48.738281 23.667969 48.957031 23.863281 49.21875 24.015625 C 49.5 24.210938 49.671875 23.972656 49.890625 23.796875 Z M 32.371094 12.398438 C 32.261719 12.136719 32.261719 11.832031 32.046875 11.550781 C 31.957031 12.027344 32.132812 12.398438 32.261719 12.769531 C 32.546875 13.488281 33.003906 14.164062 33.175781 14.925781 C 33.503906 16.191406 33.761719 17.476562 32.566406 18.5 C 32.480469 18.589844 32.394531 18.699219 32.328125 18.804688 C 31.65625 19.632812 31.394531 20.703125 32.066406 21.617188 C 32.199219 21.792969 32.261719 22.03125 32.328125 22.273438 C 32.4375 22.839844 32.351562 23.382812 32.414062 23.949219 C 32.65625 23.054688 32.894531 22.140625 32.285156 21.289062 C 32.175781 21.136719 32.15625 20.941406 32.132812 20.746094 C 32.046875 19.875 32.503906 19.285156 33.109375 18.761719 C 33.480469 18.4375 33.742188 18.066406 33.851562 17.609375 C 34.066406 16.757812 33.914062 15.953125 33.632812 15.144531 C 33.328125 14.164062 32.742188 13.335938 32.371094 12.398438 Z M 64.085938 17.304688 C 63.976562 17.238281 63.867188 17.324219 63.78125 17.410156 C 63.605469 17.609375 63.410156 17.804688 63.238281 18.023438 C 62.78125 18.699219 62.367188 19.4375 62.476562 20.265625 C 62.605469 21.3125 62.476562 22.25 61.84375 23.101562 C 61.367188 23.730469 61.085938 24.472656 61.128906 25.277344 C 61.171875 25.867188 61.085938 26.457031 60.824219 27 C 60.714844 27.21875 60.648438 27.457031 60.585938 27.675781 C 61.171875 27.132812 61.585938 26.476562 61.5625 25.691406 C 61.542969 24.710938 61.867188 23.882812 62.410156 23.101562 C 62.976562 22.316406 63.171875 21.398438 63.042969 20.460938 C 62.976562 19.941406 63.042969 19.460938 63.214844 18.980469 C 63.390625 18.457031 63.738281 18.023438 63.996094 17.542969 C 64.039062 17.519531 64.238281 17.433594 64.085938 17.304688 Z M 50.824219 24.210938 C 50.367188 24.1875 49.933594 24.277344 49.476562 24.34375 C 49.390625 24.34375 49.261719 24.34375 49.238281 24.496094 C 49.21875 24.667969 49.371094 24.667969 49.476562 24.691406 C 49.609375 24.710938 49.761719 24.734375 49.914062 24.734375 C 51.261719 24.734375 52.609375 24.710938 53.957031 24.820312 C 55.109375 24.929688 56.257812 24.996094 57.410156 24.953125 C 56.195312 24.84375 55 24.734375 53.78125 24.515625 C 52.804688 24.34375 51.804688 24.277344 50.824219 24.210938 Z M 41.066406 23.882812 C 40.328125 23.753906 39.609375 23.90625 38.871094 23.839844 C 37.761719 23.730469 36.652344 24.015625 35.523438 23.863281 C 35.804688 23.972656 36.109375 24.015625 36.414062 24.035156 C 37.089844 24.082031 37.761719 24.167969 38.4375 24.234375 C 39.328125 24.320312 40.195312 24.296875 41.085938 24.1875 C 41.175781 24.167969 41.328125 24.144531 41.328125 24.015625 C 41.304688 23.839844 41.152344 23.90625 41.066406 23.882812 Z M 61.800781 18.71875 C 61.738281 18.589844 61.648438 18.414062 61.476562 18.414062 C 61.257812 18.4375 61.085938 18.609375 61.0625 18.828125 C 61.042969 19.003906 61.195312 19.15625 61.390625 19.15625 C 61.628906 19.132812 61.757812 18.980469 61.800781 18.71875 Z M 60.671875 19.742188 C 60.671875 19.917969 60.738281 20.09375 60.953125 20.09375 C 61.148438 20.09375 61.257812 19.960938 61.257812 19.875 C 61.28125 19.570312 61.148438 19.460938 60.976562 19.4375 C 60.800781 19.4375 60.671875 19.570312 60.671875 19.742188 Z M 35 15.777344 C 34.980469 15.929688 35.066406 16.082031 35.242188 16.0625 C 35.4375 16.039062 35.546875 15.886719 35.589844 15.691406 C 35.566406 15.558594 35.5 15.429688 35.347656 15.429688 C 35.152344 15.429688 35.023438 15.582031 35 15.777344 Z M 34.785156 15.472656 C 34.914062 15.472656 35.023438 15.429688 35.046875 15.296875 C 35.046875 15.167969 34.957031 15.058594 34.851562 15.058594 C 34.71875 15.035156 34.632812 15.125 34.609375 15.253906 C 34.589844 15.386719 34.632812 15.472656 34.785156 15.472656 Z M 34.785156 15.472656 " fill-opacity="1" fill-rule="nonzero"/><g clip-path="url(#e33db3ef33)"><path fill="#f9d230" d="M 79.84375 53.109375 C 78.667969 53.652344 77.429688 54.109375 76.234375 54.613281 C 68.0625 57.988281 59.890625 61.367188 51.714844 64.746094 C 50.414062 65.289062 49.085938 65.8125 47.761719 66.335938 C 46.738281 66.75 45.71875 66.402344 45.023438 65.53125 C 44.347656 64.679688 44.109375 63.828125 44.652344 62.828125 C 44.957031 62.261719 45.21875 61.652344 45.457031 61.039062 C 45.914062 59.929688 46.085938 58.753906 46.152344 57.554688 C 46.347656 54.414062 46.109375 51.320312 45.023438 48.3125 C 44.675781 47.355469 44.371094 46.351562 44.023438 45.304688 C 43.828125 45.742188 43.652344 46.089844 43.480469 46.460938 C 42.5 48.507812 41.523438 50.535156 40.695312 52.648438 C 39.828125 54.875 39.71875 57.097656 40.542969 59.339844 C 40.675781 59.6875 40.761719 60.058594 40.890625 60.429688 C 41.085938 60.953125 40.980469 61.410156 40.71875 61.847656 C 40 63.132812 38.847656 63.589844 37.414062 63.261719 C 36.394531 63.046875 35.589844 62.433594 34.742188 61.910156 C 27.65625 57.402344 20.570312 52.890625 13.484375 48.402344 C 12.722656 47.921875 11.960938 47.421875 11.199219 46.960938 C 10.65625 46.636719 10.203125 46.222656 9.789062 45.71875 C 9.222656 45.023438 9.375 43.757812 10.136719 43.234375 C 10.808594 42.777344 11.527344 42.453125 12.308594 42.300781 C 14.394531 41.886719 16.222656 40.949219 17.808594 39.554688 C 19.046875 38.464844 20.394531 37.460938 21.394531 36.132812 C 22.222656 35.042969 23.023438 33.953125 23.828125 32.863281 C 24.460938 31.992188 25.199219 31.226562 25.917969 30.421875 C 26.894531 29.332031 27.808594 28.175781 28.828125 27.152344 C 30.285156 25.691406 31.914062 24.496094 33.980469 24.015625 C 34.871094 23.820312 35.804688 23.972656 36.695312 24.035156 C 37.175781 24.082031 37.652344 24.167969 38.132812 24.144531 C 38.914062 24.125 39.609375 24.363281 40.304688 24.691406 C 41.4375 25.214844 42.5 25.867188 43.5 26.585938 C 44.109375 27.023438 44.585938 27.632812 45.042969 28.222656 C 45.195312 28.4375 45.328125 28.460938 45.5 28.265625 C 45.566406 28.199219 45.652344 28.15625 45.71875 28.089844 C 46.128906 27.761719 46.128906 27.761719 45.804688 27.285156 C 46.128906 27.371094 46.414062 26.933594 46.675781 27.347656 C 46.71875 27.414062 46.847656 27.285156 46.933594 27.242188 C 47.628906 26.847656 48.28125 26.414062 49.019531 26.085938 C 50.390625 25.476562 51.824219 25.082031 53.347656 25.015625 C 56.347656 24.886719 58.867188 26.042969 61.128906 27.851562 C 62.367188 28.832031 63.324219 30.074219 64.214844 31.378906 C 65.300781 32.929688 66.148438 34.605469 67.0625 36.242188 C 68.5625 38.878906 70.019531 41.535156 71.539062 44.152344 C 72.714844 46.179688 74.429688 47.441406 76.582031 48.183594 C 77.191406 48.402344 77.820312 48.554688 78.453125 48.75 C 79.539062 49.078125 80.300781 49.796875 80.734375 50.839844 C 81.210938 51.867188 80.734375 52.695312 79.84375 53.109375 Z M 44.261719 26 C 44.328125 25.953125 44.371094 25.867188 44.347656 25.800781 C 44.304688 25.671875 44.195312 25.5625 44.066406 25.5625 C 43.761719 25.539062 43.457031 25.453125 43.042969 25.367188 C 43.414062 25.605469 43.695312 25.78125 43.957031 25.933594 C 44.023438 25.976562 44.128906 26.085938 44.261719 26 Z M 44.042969 22.859375 C 44.152344 22.816406 44.066406 22.730469 44.042969 22.664062 C 43.980469 22.511719 43.957031 22.359375 43.933594 22.207031 C 43.933594 22.117188 43.871094 22.054688 43.78125 22.054688 C 43.675781 22.074219 43.695312 22.164062 43.695312 22.273438 C 43.71875 22.425781 43.738281 22.578125 43.78125 22.75 C 43.828125 22.882812 43.957031 22.925781 44.042969 22.859375 Z M 44.042969 22.859375 " fill-opacity="1" fill-rule="nonzero"/></g><path fill="#f2ad38" d="M 79.277344 52.648438 C 78.105469 53.195312 76.886719 53.695312 75.691406 54.199219 C 70.996094 56.179688 66.191406 57.835938 61.496094 59.753906 C 59.695312 60.496094 57.976562 61.367188 56.152344 62.085938 C 53.933594 62.980469 51.671875 63.785156 49.414062 64.59375 C 48.738281 64.832031 48.042969 65.070312 47.304688 64.875 C 46.675781 64.703125 46.324219 64.289062 46.21875 63.675781 C 46.042969 62.738281 46.175781 61.824219 46.609375 60.976562 C 46.847656 60.515625 47.042969 60.058594 47.261719 59.582031 C 48.109375 57.792969 48.109375 55.898438 47.957031 53.980469 C 47.761719 51.582031 46.871094 49.425781 45.976562 47.246094 C 44.933594 44.71875 44.175781 42.082031 43.828125 39.355469 C 43.390625 36.066406 43.914062 32.972656 45.695312 30.140625 C 46.128906 29.441406 46.523438 28.722656 47.128906 28.132812 C 47.542969 27.742188 48.023438 27.5 48.585938 27.414062 C 49.304688 27.328125 49.761719 27.742188 49.671875 28.460938 C 49.585938 29.179688 49.261719 29.8125 48.957031 30.445312 C 48.457031 31.535156 47.761719 32.535156 47.390625 33.691406 C 46.847656 35.367188 46.78125 37.070312 46.914062 38.8125 C 47.128906 41.777344 48 44.542969 49.261719 47.222656 C 50.304688 49.445312 51.042969 51.757812 51.324219 54.21875 C 51.609375 56.835938 51.390625 59.382812 50.71875 61.910156 C 50.671875 62.042969 50.542969 62.195312 50.695312 62.324219 C 50.847656 62.457031 51.019531 62.371094 51.171875 62.324219 C 53.410156 61.476562 55.628906 60.625 57.867188 59.777344 C 60.214844 58.90625 62.628906 58.230469 64.996094 57.421875 C 67.34375 56.617188 69.628906 55.679688 71.910156 54.675781 C 73.320312 54.066406 74.800781 53.632812 76.191406 52.976562 C 76.996094 52.585938 77.777344 52.191406 78.515625 51.667969 C 79.039062 51.277344 79.058594 51.125 78.605469 50.667969 C 77.886719 49.949219 76.972656 49.578125 76.105469 49.164062 C 74.515625 48.421875 72.953125 47.636719 71.714844 46.351562 C 71.300781 45.9375 70.929688 45.480469 70.5625 45.042969 C 70.476562 44.957031 70.429688 44.847656 70.410156 44.738281 C 70.125 44.476562 70.300781 44.152344 70.234375 43.738281 C 70.496094 44 70.582031 44.238281 70.671875 44.476562 C 72.367188 46.570312 74.34375 48.226562 76.972656 49.03125 C 77.515625 49.207031 78.039062 49.382812 78.558594 49.597656 C 79.015625 49.796875 79.429688 50.058594 79.777344 50.425781 C 80.429688 51.253906 80.253906 52.191406 79.277344 52.648438 Z M 38.414062 60.648438 C 37.695312 60.84375 37.023438 60.667969 36.347656 60.429688 C 34.785156 59.839844 33.371094 58.992188 32.003906 58.03125 C 28.9375 55.875 25.871094 53.695312 22.589844 51.820312 C 19.894531 50.296875 17.308594 48.554688 14.789062 46.746094 C 14.65625 46.636719 14.460938 46.546875 14.484375 46.375 C 14.503906 46.15625 14.742188 46.199219 14.894531 46.15625 C 16.265625 45.808594 17.570312 45.351562 18.785156 44.628906 C 21.15625 43.214844 23.328125 41.578125 25.113281 39.421875 C 26.285156 37.984375 27.265625 36.414062 28.21875 34.824219 C 29.199219 33.167969 30.261719 31.578125 31.742188 30.292969 C 33.304688 28.941406 34.957031 27.808594 37.066406 27.5 C 37.566406 27.4375 38.042969 27.414062 38.542969 27.371094 C 39.242188 27.328125 39.9375 27.371094 40.609375 27.195312 C 40.890625 27.109375 41.109375 26.933594 41.085938 26.609375 C 41.042969 26.257812 40.828125 26.0625 40.5 26.019531 C 40.261719 26 40.042969 25.933594 39.828125 25.84375 C 38.957031 25.5625 38.066406 25.386719 37.195312 25.386719 C 34.894531 25.429688 32.894531 26.214844 31.109375 27.589844 C 29.132812 29.136719 27.566406 31.03125 26.113281 33.082031 C 24.546875 35.28125 23.003906 37.460938 21.003906 39.3125 C 19.417969 40.773438 17.679688 41.949219 15.699219 42.800781 C 14.460938 43.34375 13.113281 43.300781 11.851562 43.628906 C 11.332031 43.757812 11.027344 44.042969 10.917969 44.5 C 10.746094 45.242188 11.09375 45.785156 11.636719 46.242188 C 12.546875 47.007812 13.570312 47.617188 14.570312 48.25 C 16.417969 49.382812 18.394531 50.320312 20.265625 51.453125 C 23.699219 53.566406 27.046875 55.855469 30.460938 58.011719 C 32.304688 59.167969 34.109375 60.386719 36.089844 61.300781 C 36.609375 61.542969 37.132812 61.78125 37.71875 61.847656 C 38.175781 61.910156 38.609375 61.78125 38.890625 61.390625 C 39.023438 61.214844 39.042969 61.019531 38.9375 60.84375 C 38.804688 60.648438 38.609375 60.582031 38.414062 60.648438 Z M 67.976562 57.945312 C 66.234375 58.6875 64.476562 59.382812 62.714844 60.058594 C 61.542969 60.515625 60.367188 60.996094 59.214844 61.496094 C 58.800781 61.671875 58.78125 61.804688 59 62.195312 C 59.128906 62.414062 59.300781 62.585938 59.5 62.738281 C 60.367188 63.414062 61.367188 63.613281 62.605469 63.632812 C 64.171875 63.589844 65.714844 63.109375 66.933594 61.824219 C 67.867188 60.824219 68.519531 59.6875 68.476562 58.273438 C 68.453125 57.773438 68.410156 57.773438 67.976562 57.945312 Z M 26.699219 56.636719 C 26.046875 56.203125 25.371094 55.808594 24.742188 55.351562 C 23.089844 54.175781 21.328125 53.21875 19.613281 52.128906 C 19.046875 51.777344 18.785156 51.886719 18.632812 52.519531 C 18.484375 53.109375 18.503906 53.71875 18.613281 54.304688 C 19.070312 56.59375 21.132812 58.230469 23.632812 58.207031 C 24.699219 58.230469 25.699219 57.859375 26.65625 57.335938 C 27.089844 57.117188 27.132812 56.921875 26.699219 56.636719 Z M 54.304688 27.414062 C 54.652344 27.566406 55 27.71875 55.347656 27.851562 C 58.867188 29.222656 61.78125 31.359375 63.996094 34.433594 C 64.84375 35.628906 65.519531 36.9375 66.257812 38.179688 C 66.496094 38.59375 66.78125 38.964844 67.257812 39.203125 C 67.28125 38.832031 67.214844 38.527344 67.0625 38.222656 C 66.734375 37.589844 66.433594 36.9375 66.171875 36.261719 C 64.324219 31.882812 61.214844 28.699219 56.933594 26.695312 C 56.0625 26.28125 55.152344 25.976562 54.152344 26 C 53.652344 26.019531 53.410156 26.367188 53.628906 26.828125 C 53.78125 27.132812 54.019531 27.304688 54.304688 27.414062 Z M 43.433594 42.582031 C 43.175781 42.625 42.914062 42.667969 42.761719 42.929688 C 42.609375 43.171875 42.457031 43.386719 42.347656 43.648438 C 41.957031 44.5 41.652344 45.371094 41.347656 46.242188 C 40.566406 48.421875 39.480469 50.449219 38.566406 52.542969 C 38.21875 53.347656 38.066406 54.175781 38 55.070312 C 38.023438 55.222656 38.023438 55.394531 38.042969 55.570312 C 38.242188 56.550781 38.566406 57.488281 38.632812 58.492188 C 38.632812 58.535156 38.652344 58.601562 38.675781 58.644531 C 38.804688 58.90625 39 58.925781 39.21875 58.730469 C 39.589844 58.402344 39.5 58.011719 39.4375 57.617188 C 39.390625 57.378906 39.304688 57.160156 39.261719 56.945312 C 39.042969 55.394531 39.261719 53.914062 39.847656 52.496094 C 40.652344 50.578125 41.609375 48.707031 42.542969 46.851562 C 43 45.960938 43.347656 45 43.523438 44.019531 C 43.585938 43.628906 43.652344 43.257812 43.585938 42.84375 C 43.566406 42.691406 43.609375 42.539062 43.433594 42.582031 Z M 67.867188 40.382812 C 68.105469 40.402344 68.34375 40.183594 68.34375 39.921875 C 68.324219 39.640625 68.171875 39.488281 67.886719 39.488281 C 67.605469 39.488281 67.476562 39.660156 67.433594 39.902344 C 67.433594 40.140625 67.628906 40.359375 67.867188 40.382812 Z M 39.480469 59.425781 C 39.21875 59.472656 39.066406 59.601562 39.089844 59.863281 C 39.089844 60.125 39.261719 60.277344 39.523438 60.277344 C 39.785156 60.277344 39.9375 60.125 39.914062 59.863281 C 39.890625 59.582031 39.738281 59.449219 39.480469 59.425781 Z M 39.480469 59.425781 " fill-opacity="1" fill-rule="nonzero"/><path fill="#316d53" d="M 50.890625 21.859375 C 50.019531 20.984375 48.566406 20.660156 47.476562 21.246094 C 46.78125 21.617188 46.195312 22.183594 45.890625 22.96875 C 45.847656 23.101562 45.78125 23.230469 45.71875 23.449219 C 45.652344 23.273438 45.609375 23.144531 45.566406 23.035156 C 44.980469 21.355469 42.957031 20.441406 41.414062 21.269531 C 40.542969 21.75 39.871094 22.488281 39.675781 23.578125 C 39.5 24.539062 39.785156 25.386719 40.390625 26.128906 C 40.457031 26.214844 40.542969 26.304688 40.609375 26.390625 C 40.632812 26.390625 40.652344 26.414062 40.652344 26.433594 C 41.566406 27.042969 42.542969 27.285156 43.609375 26.914062 C 43.652344 27.042969 43.542969 27.042969 43.5 27.085938 C 42.066406 28.285156 41.957031 30.183594 43.238281 31.578125 C 43.28125 31.621094 43.328125 31.6875 43.347656 31.730469 C 43.371094 31.730469 43.390625 31.75 43.390625 31.773438 C 43.585938 31.882812 43.761719 32.011719 43.957031 32.101562 C 45.371094 32.820312 47.152344 32.296875 48 30.921875 C 48.824219 29.59375 48.5 27.851562 47.195312 26.914062 C 46.457031 26.367188 45.609375 26.214844 44.675781 26.367188 C 45.128906 25.910156 45.457031 25.386719 45.628906 24.757812 C 45.761719 24.820312 45.738281 24.953125 45.78125 25.039062 C 46.21875 26.304688 47.195312 27.023438 48.5 27.085938 C 49.738281 27.175781 51 26.390625 51.476562 25.257812 C 52.019531 24.082031 51.761719 22.75 50.890625 21.859375 Z M 41.566406 22.554688 C 41.347656 22.554688 41.21875 22.425781 41.21875 22.207031 C 41.21875 21.988281 41.523438 21.703125 41.761719 21.726562 C 41.957031 21.726562 42.066406 21.859375 42.085938 22.03125 C 42.085938 22.292969 41.804688 22.554688 41.566406 22.554688 Z M 42.347656 22.992188 C 42.238281 22.992188 42.175781 22.945312 42.175781 22.839844 C 42.175781 22.730469 42.238281 22.664062 42.347656 22.664062 C 42.457031 22.640625 42.523438 22.707031 42.523438 22.816406 C 42.523438 22.902344 42.457031 22.96875 42.347656 22.992188 Z M 49.519531 23.515625 C 49.371094 23.515625 49.304688 23.40625 49.304688 23.253906 C 49.324219 23.121094 49.414062 23.035156 49.542969 23.054688 C 49.671875 23.054688 49.738281 23.164062 49.738281 23.296875 C 49.71875 23.425781 49.652344 23.515625 49.519531 23.515625 Z M 50.171875 22.925781 C 49.890625 22.925781 49.738281 22.730469 49.738281 22.46875 C 49.738281 22.207031 49.890625 22.054688 50.152344 22.03125 C 50.414062 22.054688 50.585938 22.207031 50.609375 22.46875 C 50.609375 22.730469 50.457031 22.925781 50.171875 22.925781 Z M 50.171875 22.925781 " fill-opacity="1" fill-rule="nonzero"/></svg>