<svg xmlns="http://www.w3.org/2000/svg" xmlns:xlink="http://www.w3.org/1999/xlink" width="700" zoomAndPan="magnify" viewBox="0 0 525 149.999998" height="200" preserveAspectRatio="xMidYMid meet" version="1.0"><defs><g/></defs><rect x="-52.5" width="630" fill="#ffffff" y="-15" height="179.999997" fill-opacity="1"/><rect x="-52.5" width="630" fill="#8b0000" y="-15" height="179.999997" fill-opacity="1"/><g fill="#ffffff" fill-opacity="1"><g transform="translate(41.569467, 84.425121)"><g><path d="M 1.265625 0 L 1.265625 -66.40625 L 26.90625 -66.40625 L 29.109375 -26.65625 L 29.984375 -26.65625 L 32.125 -66.40625 L 57.8125 -66.40625 L 57.8125 0 L 39.984375 0 L 42.921875 -39.59375 L 41.9375 -39.59375 L 36.921875 0 L 22.171875 0 L 17.046875 -39.65625 L 16.015625 -39.65625 L 19.046875 0 Z M 1.265625 0 "/></g></g><g transform="translate(100.652798, 84.425121)"><g><path d="M 1.265625 0 L 1.265625 -66.40625 L 34.234375 -66.40625 L 34.234375 -52.59375 L 22.515625 -52.59375 L 22.515625 -37.9375 L 31.78125 -37.9375 L 31.78125 -27.875 L 22.515625 -27.875 L 22.515625 -13.421875 L 34.46875 -13.421875 L 34.46875 0 Z M 1.265625 0 "/></g></g><g transform="translate(135.712163, 84.425121)"><g><path d="M 43.796875 0 L 24.03125 0 L 23 -22.171875 L 21.1875 -22.171875 L 21.1875 0 L 1.265625 0 L 1.265625 -66.40625 L 21.78125 -66.40625 C 25.03125 -66.40625 28 -66.207031 30.6875 -65.8125 C 33.375 -65.425781 35.6875 -64.679688 37.625 -63.578125 C 39.5625 -62.472656 41.054688 -60.882812 42.109375 -58.8125 C 43.171875 -56.75 43.703125 -54.054688 43.703125 -50.734375 L 43.703125 -36.078125 C 43.703125 -33.703125 43.351562 -31.703125 42.65625 -30.078125 C 41.957031 -28.453125 40.972656 -27.117188 39.703125 -26.078125 Z M 21.1875 -33.25 L 22.359375 -33.25 C 22.953125 -33.25 23.367188 -33.410156 23.609375 -33.734375 C 23.847656 -34.066406 23.96875 -34.671875 23.96875 -35.546875 L 23.96875 -50.140625 C 23.96875 -50.992188 23.851562 -51.570312 23.625 -51.875 C 23.40625 -52.1875 22.953125 -52.34375 22.265625 -52.34375 L 21.1875 -52.34375 Z M 21.1875 -33.25 "/></g></g><g transform="translate(180.439711, 84.425121)"><g><path d="M 43.796875 0 L 24.03125 0 L 23 -22.171875 L 21.1875 -22.171875 L 21.1875 0 L 1.265625 0 L 1.265625 -66.40625 L 21.78125 -66.40625 C 25.03125 -66.40625 28 -66.207031 30.6875 -65.8125 C 33.375 -65.425781 35.6875 -64.679688 37.625 -63.578125 C 39.5625 -62.472656 41.054688 -60.882812 42.109375 -58.8125 C 43.171875 -56.75 43.703125 -54.054688 43.703125 -50.734375 L 43.703125 -36.078125 C 43.703125 -33.703125 43.351562 -31.703125 42.65625 -30.078125 C 41.957031 -28.453125 40.972656 -27.117188 39.703125 -26.078125 Z M 21.1875 -33.25 L 22.359375 -33.25 C 22.953125 -33.25 23.367188 -33.410156 23.609375 -33.734375 C 23.847656 -34.066406 23.96875 -34.671875 23.96875 -35.546875 L 23.96875 -50.140625 C 23.96875 -50.992188 23.851562 -51.570312 23.625 -51.875 C 23.40625 -52.1875 22.953125 -52.34375 22.265625 -52.34375 L 21.1875 -52.34375 Z M 21.1875 -33.25 "/></g></g><g transform="translate(225.167258, 84.425121)"><g><path d="M 12.359375 0 L 12.359375 -20.703125 L -0.140625 -66.40625 L 21 -66.40625 L 22.40625 -36.578125 L 23.1875 -36.625 L 24.21875 -66.40625 L 45.75 -66.40625 L 33.25 -20.796875 L 33.34375 0 Z M 12.359375 0 "/></g></g><g transform="translate(270.724901, 84.425121)"><g/></g><g transform="translate(288.254584, 84.425121)"><g><path d="M 0.390625 0 L 6.0625 -33.109375 L 0.984375 -66.40625 L 21.921875 -66.40625 L 23.140625 -40.671875 L 23.828125 -40.671875 L 25.296875 -66.40625 L 46.1875 -66.40625 L 40.921875 -33.796875 L 46.78125 0 L 25.34375 0 L 24.03125 -25.25 L 23.296875 -25.25 L 21.875 0 Z M 0.390625 0 "/></g></g><g transform="translate(335.42359, 84.425121)"><g><path d="M 1.265625 0 L 1.265625 -66.40625 L 26.90625 -66.40625 L 29.109375 -26.65625 L 29.984375 -26.65625 L 32.125 -66.40625 L 57.8125 -66.40625 L 57.8125 0 L 39.984375 0 L 42.921875 -39.59375 L 41.9375 -39.59375 L 36.921875 0 L 22.171875 0 L 17.046875 -39.65625 L 16.015625 -39.65625 L 19.046875 0 Z M 1.265625 0 "/></g></g><g transform="translate(394.506921, 84.425121)"><g><path d="M 24.90625 0 L 24.609375 -7.515625 L 21.234375 -7.515625 L 21 0 L 0 0 L 11.8125 -66.40625 L 33.984375 -66.40625 L 45.796875 0 Z M 21.625 -18.609375 L 24.171875 -18.609375 L 23.140625 -43.953125 L 22.46875 -43.953125 Z M 21.625 -18.609375 "/></g></g><g transform="translate(440.357539, 84.425121)"><g><path d="M 22.40625 1.375 C 18.175781 1.375 14.675781 0.960938 11.90625 0.140625 C 9.144531 -0.671875 6.984375 -1.765625 5.421875 -3.140625 C 3.859375 -4.523438 2.757812 -6.101562 2.125 -7.875 C 1.488281 -9.65625 1.171875 -11.503906 1.171875 -13.421875 L 1.171875 -22.078125 L 19.921875 -22.078125 L 19.921875 -13.234375 C 19.953125 -12.910156 20.066406 -12.59375 20.265625 -12.28125 C 20.460938 -11.96875 20.820312 -11.8125 21.34375 -11.8125 C 21.789062 -11.8125 22.132812 -11.957031 22.375 -12.25 C 22.625 -12.550781 22.75 -12.878906 22.75 -13.234375 C 22.75 -14.273438 22.679688 -15.304688 22.546875 -16.328125 C 22.421875 -17.359375 22.226562 -18.28125 21.96875 -19.09375 C 21.414062 -20.78125 20.625 -22.265625 19.59375 -23.546875 C 18.570312 -24.835938 17.425781 -26.03125 16.15625 -27.125 C 14.894531 -28.21875 13.578125 -29.300781 12.203125 -30.375 C 10.835938 -31.445312 9.503906 -32.597656 8.203125 -33.828125 C 6.898438 -35.066406 5.734375 -36.484375 4.703125 -38.078125 C 3.679688 -39.679688 2.859375 -41.546875 2.234375 -43.671875 C 1.617188 -45.804688 1.3125 -48.304688 1.3125 -51.171875 L 1.3125 -52.78125 C 1.414062 -56.394531 2.222656 -59.289062 3.734375 -61.46875 C 5.242188 -63.65625 7.441406 -65.234375 10.328125 -66.203125 C 13.210938 -67.179688 16.6875 -67.671875 20.75 -67.671875 C 25.4375 -67.671875 29.273438 -67.050781 32.265625 -65.8125 C 35.265625 -64.582031 37.488281 -62.859375 38.9375 -60.640625 C 40.382812 -58.429688 41.109375 -55.863281 41.109375 -52.9375 L 41.109375 -46.4375 L 23.046875 -46.4375 L 23.046875 -53.125 C 23.046875 -53.519531 22.929688 -53.847656 22.703125 -54.109375 C 22.472656 -54.367188 22.132812 -54.5 21.6875 -54.5 C 21.257812 -54.5 20.914062 -54.367188 20.65625 -54.109375 C 20.394531 -53.847656 20.265625 -53.503906 20.265625 -53.078125 C 20.265625 -52.359375 20.351562 -51.609375 20.53125 -50.828125 C 20.707031 -50.046875 20.925781 -49.378906 21.1875 -48.828125 C 21.738281 -47.617188 22.523438 -46.523438 23.546875 -45.546875 C 24.578125 -44.578125 25.734375 -43.617188 27.015625 -42.671875 C 28.304688 -41.734375 29.632812 -40.71875 31 -39.625 C 32.375 -38.53125 33.703125 -37.265625 34.984375 -35.828125 C 36.273438 -34.398438 37.441406 -32.71875 38.484375 -30.78125 C 39.523438 -28.84375 40.351562 -26.539062 40.96875 -23.875 C 41.582031 -21.207031 41.890625 -18.082031 41.890625 -14.5 L 41.890625 -12.359375 C 41.828125 -9.265625 40.945312 -6.695312 39.25 -4.65625 C 37.5625 -2.625 35.269531 -1.109375 32.375 -0.109375 C 29.476562 0.878906 26.15625 1.375 22.40625 1.375 Z M 22.40625 1.375 "/></g></g></g><g fill="#ffffff" fill-opacity="1"><g transform="translate(203.472166, 132.376957)"><g><path d="M 9.59375 0 L 9.59375 -12.046875 L 0.296875 -25.1875 L 6.921875 -25.1875 L 12.375 -16.484375 L 17.8125 -25.1875 L 24.453125 -25.1875 L 15.15625 -12.046875 L 15.15625 0 Z M 9.59375 0 "/></g></g></g><g fill="#ffffff" fill-opacity="1"><g transform="translate(233.589875, 132.376957)"><g><path d="M 9.671875 -27.78125 L 4.328125 -16.703125 L 1.296875 -16.703125 L 4.1875 -27.78125 Z M 9.671875 -27.78125 "/></g></g></g><g fill="#ffffff" fill-opacity="1"><g transform="translate(249.00155, 132.376957)"><g><path d="M 15.9375 -9.625 L 12.75 -18.59375 L 9.5625 -9.625 Z M 25.34375 0 L 19.375 0 L 17.5625 -5.078125 L 7.96875 -5.078125 L 6.15625 0 L 0.1875 0 L 10.40625 -25.1875 L 15.109375 -25.1875 Z M 25.34375 0 "/></g></g></g><g fill="#ffffff" fill-opacity="1"><g transform="translate(279.897157, 132.376957)"><g><path d="M 2.21875 0 L 2.21875 -25.1875 L 7.78125 -25.1875 L 7.78125 -5.03125 L 16.8125 -5.03125 L 16.8125 0 Z M 2.21875 0 "/></g></g></g><g fill="#ffffff" fill-opacity="1"><g transform="translate(303.384186, 132.376957)"><g><path d="M 2.21875 0 L 2.21875 -25.1875 L 7.78125 -25.1875 L 7.78125 -5.03125 L 16.8125 -5.03125 L 16.8125 0 Z M 2.21875 0 "/></g></g></g></svg>